<?xml version="1.0" encoding="utf-8"?>
<!-- Generator: Adobe Illustrator 16.0.0, SVG Export Plug-In . SVG Version: 6.00 Build 0)  -->
<!DOCTYPE svg PUBLIC "-//W3C//DTD SVG 1.1//EN" "http://www.w3.org/Graphics/SVG/1.1/DTD/svg11.dtd">
<svg version="1.1" id="Layer_1" xmlns="http://www.w3.org/2000/svg" xmlns:xlink="http://www.w3.org/1999/xlink" x="0px" y="0px"
	 width="600px" height="600px" viewBox="0 0 600 600" enable-background="new 0 0 600 600" xml:space="preserve">
<rect fill="#202021" width="600" height="600"/>
<g>
	<path fill="#4E4D51" d="M321.078,439.998c0,0,4.63,30.407-7.312,32.604c-3.167-2.681-6.339-7.806-1.22-25.109
		c5.115-17.309,1.949-7.494,1.949-7.494H321.078z"/>
	<path fill="#4E4D51" d="M277.581,439.998c0,0-4.631,30.407,7.312,32.604c3.168-2.681,6.334-7.806,1.219-25.109
		c-5.12-17.309-1.954-7.494-1.954-7.494H277.581z"/>
	<g>
		<path fill="#808285" d="M329.853,416.292h-33.635v30.133C335.756,450.146,329.853,416.292,329.853,416.292z"/>
		<path fill="#808285" d="M269.226,416.292h33.639v30.133C263.32,450.146,269.226,416.292,269.226,416.292z"/>
	</g>
	<path fill="#58595B" d="M339.31,388.749l-44.312,0.365v26.979c8.337,0.093,17.295,0.235,26.557,0.443
		C359.695,417.391,339.31,388.749,339.31,388.749z"/>
	<path fill="#58595B" d="M259.487,388.749l44.315,0.365v26.979c-8.34,0.093-17.3,0.235-26.56,0.443
		C239.099,417.391,259.487,388.749,259.487,388.749z"/>
	<g>
		<path fill="#A7A9AC" d="M346.959,333.168c-12.814-26.839-38.788-26.058-60.984-18.973v76.5h8.166v-6.944h2.805v6.944h43.146
			C340.092,390.695,371.871,385.333,346.959,333.168z"/>
		<rect x="294.141" y="383.751" fill="#A7A9AC" width="2.805" height="6.944"/>
		<path fill="#A7A9AC" d="M311.642,314.195c-22.198-7.085-48.171-7.866-60.987,18.973c-24.907,52.165,6.87,57.527,6.87,57.527
			h36.616v-6.944h2.805v6.944h14.696V314.195z"/>
		<rect x="294.141" y="383.751" fill="#A7A9AC" width="2.805" height="6.944"/>
	</g>
	<path fill="#58595B" d="M359.198,210.375l25.496-12.054c0,0,18.565-11.496,27.315,11.413c8.753,22.91,35.028,77.917,37.811,107.393
		c9.004,26.989,14.601,37.906,16.024,40.265c1.427,2.358-0.242,3.374-2.807,1.235c-2.574-2.143-11.744-26.743-11.744-26.743
		s-19.011-37.992-30.706-52.673c-5.963-14.523-19.747-51.309-19.747-51.309s-3.194-21.435-22.683-10.859
		c-19.485,10.575-19.485,10.575-19.485,10.575L359.198,210.375z"/>
	<path fill="#58595B" d="M370.572,329.991l55.601,49.529c0,0,6.75,5.196,3.289,13.398c-3.458,8.204-43.965,91.093-43.965,91.093
		s-5,24.597,39.757,69.239c0,0,0.424,1.01-0.349,1.611c-0.77,0.6-2.527-1.183-2.448-1.176c0.085,0.005-29.8-29.068-29.8-29.068
		s-26.034-29.524-18.938-46.165c7.089-16.65,34.229-73.851,34.229-73.851s7.684-10.657-1.564-17.436
		c-11.523-6.857-47.71-39.475-47.71-39.475L370.572,329.991z"/>
	<path fill="#808285" d="M348.144,134.811l17.436-58.327c0,0,4-6.344,10.586-2.626c6.579,3.719,17.2,20.273,30.833-12.57
		c6.114-11.89,8.554-16.21,8.554-16.21s2.085-0.549,2.364,1.6c0.28,2.148-3.521,8.045-4.246,8.888
		c-0.729,0.847-4.881,12.683-5.042,13.089c-0.169,0.408-8.026,23.363-26.727,15.786c-6.572-3.653-11.923-6.606-12.137,1.095
		c-0.217,7.705-18.828,49.068-18.828,49.068L348.144,134.811z"/>
	<path fill="#58595B" d="M240.805,210.375l-25.496-12.054c0,0-18.564-11.496-27.315,11.413
		c-8.75,22.91-35.031,77.917-37.812,107.393c-9.004,26.989-14.596,37.906-16.026,40.265c-1.427,2.358,0.24,3.374,2.811,1.235
		c2.573-2.143,11.741-26.743,11.741-26.743s19.011-37.992,30.708-52.673c5.963-14.523,19.75-51.309,19.75-51.309
		s3.191-21.435,22.679-10.859c19.489,10.575,19.489,10.575,19.489,10.575L240.805,210.375z"/>
	<path fill="#58595B" d="M229.43,329.991l-55.599,49.529c0,0-6.75,5.196-3.291,13.398c3.458,8.204,43.966,91.093,43.966,91.093
		s4.999,24.597-39.759,69.239c0,0-0.424,1.01,0.351,1.611c0.767,0.6,2.53-1.183,2.446-1.176
		c-0.08,0.005,29.804-29.068,29.804-29.068s26.032-29.524,18.936-46.165c-7.091-16.65-34.229-73.851-34.229-73.851
		s-7.684-10.657,1.566-17.436c11.524-6.857,47.713-39.475,47.713-39.475L229.43,329.991z"/>
	<path fill="#808285" d="M251.86,134.811l-17.435-58.327c0,0-3.999-6.344-10.583-2.626c-6.583,3.719-17.201,20.273-30.834-12.57
		c-6.116-11.89-8.555-16.21-8.555-16.21s-2.083-0.549-2.364,1.6s3.521,8.045,4.245,8.888c0.728,0.847,4.88,12.683,5.043,13.089
		c0.168,0.408,8.024,23.363,26.721,15.786c6.577-3.653,11.925-6.606,12.145,1.095c0.212,7.705,18.826,49.068,18.826,49.068
		L251.86,134.811z"/>
	<g>
		<path fill="#A7A9AC" d="M361.3,158.877c0,0-18.272-72.087-61.449-67.945v90.129h39.264
			C339.114,181.061,373.241,182.524,361.3,158.877z"/>
		<path fill="#A7A9AC" d="M239.981,158.877c0,0,18.268-72.087,61.452-67.945v90.129h-39.271
			C262.163,181.061,228.036,182.524,239.981,158.877z"/>
	</g>
	<g>
		<path fill="#808285" d="M353.049,180.423l-14.811-0.896l-12.609,187.88c0.242,0.008,0.473,0.025,0.719,0.025
			C410.722,356.743,362.032,206.215,353.049,180.423z"/>
		<path fill="#808285" d="M325.163,367.36c0.246,0.031,0.473,0.047,0.708,0.072l13.703-187.823l-14.921-0.903
			C311.812,203.725,243.392,345.085,325.163,367.36z"/>
	</g>
	<path fill="#FFFFFF" d="M324.979,280.996l0.195-0.021C325.175,280.804,324.979,280.996,324.979,280.996z"/>
	<g>
		<path fill="#808285" d="M278.377,179.297l-14.821,0.598l6.368,188.195c0.242-0.013,0.469-0.019,0.714-0.039
			C353.501,348.91,289.918,204.056,278.377,179.297z"/>
		<path fill="#808285" d="M269.454,368.09c0.247,0.011,0.476,0,0.712,0l-5.272-188.245l-14.935,0.601
			C239.697,206.631,185.855,354.16,269.454,368.09z"/>
	</g>
	<g>
		<g>
			<path fill="#808285" d="M326.011,101.369c5.071-13.895,12.413-28.06,22.424-39.008c6.304-6.894,15.058-12.847,24.784-10.247
				c14.613,3.907,23.075,22.315,28.659,34.709c2.501,5.551,4.67,11.249,6.722,16.979c2.423,6.764,5.335,13.941,6.48,21.042
				c2.338,14.485,3.19,29.185,3.323,43.843c0.24,26.541-2.503,52.978-4.467,79.413c-1.586,21.353-3.024,43.361,1.402,64.479
				c2.916,13.915,10.406,32.484,24.902,38.006c0.302,0.115,0.431-0.369,0.133-0.482c-9.229-3.516-15.396-13.171-19.381-21.688
				c-4.762-10.176-6.614-21.557-7.499-32.663c-2.054-25.776,1.334-51.901,3.3-77.58c2.237-29.215,3.595-58.815-0.428-87.943
				c-1.881-13.625-7.008-27.118-12.372-39.762c-3.8-8.959-8.113-17.77-13.929-25.611c-5.608-7.561-13.769-14.856-23.834-13.795
				c-8.437,0.889-15.333,7.45-20.504,13.645c-8.82,10.566-15.487,23.623-20.199,36.532
				C325.418,101.54,325.901,101.669,326.011,101.369L326.011,101.369z"/>
		</g>
	</g>
	<g>
		<g>
			<path fill="#808285" d="M274.478,101.236c-4.857-13.309-11.788-26.637-20.972-37.451c-5.379-6.333-12.543-12.406-21.215-12.842
				c-10.789-0.542-19.049,8.953-24.555,17.012c-5.342,7.819-9.308,16.559-12.873,25.298c-5.365,13.149-9.959,26.604-11.698,40.716
				c-3.584,29.075-1.948,58.506,0.311,87.613c1.944,25.052,4.933,50.374,2.93,75.516c-0.855,10.738-2.987,21.443-7.392,31.314
				c-3.8,8.516-10.273,18.218-19.38,21.688c-0.298,0.113-0.169,0.598,0.133,0.482c16.234-6.186,23.204-27.593,25.85-42.98
				c4.094-23.815,1.356-48.685-0.564-72.577c-2.36-29.357-4.659-58.759-2.615-88.21c0.554-7.976,1.512-15.919,2.786-23.812
				c1.203-7.453,4.727-15.235,7.309-22.317c3.886-10.657,8.455-21.185,14.528-30.793c5.679-8.985,14.476-19.302,26.222-18.387
				c8.9,0.693,16.121,7.939,21.406,14.486c8.345,10.339,14.757,22.907,19.308,35.375
				C274.105,101.669,274.589,101.54,274.478,101.236L274.478,101.236z"/>
		</g>
	</g>
</g>
</svg>
