<?xml version="1.0" encoding="utf-8"?>
<!-- Generator: Adobe Illustrator 16.0.0, SVG Export Plug-In . SVG Version: 6.00 Build 0)  -->
<!DOCTYPE svg PUBLIC "-//W3C//DTD SVG 1.1//EN" "http://www.w3.org/Graphics/SVG/1.1/DTD/svg11.dtd">
<svg version="1.1" id="Layer_1" xmlns="http://www.w3.org/2000/svg" xmlns:xlink="http://www.w3.org/1999/xlink" x="0px" y="0px"
	 width="252px" height="120px" viewBox="0 0 252 120" enable-background="new 0 0 252 120" xml:space="preserve">
<path fill-rule="evenodd" clip-rule="evenodd" fill="none" stroke="#FFFFFF" stroke-width="4" stroke-miterlimit="10" d="
	M228.722,68.882c-4.714-5.737-10.849-8.4-18.407-7.679c-1.493,0.142-3.579-0.1-4.512-1.038c-4.22-4.232-9.162-7.142-14.733-9.062
	c-2.477-0.854-5.84-0.683-7.371-2.318c-1.606-1.714-1.398-5.064-2.163-7.646c-5.76-19.502-24.494-33.119-45.945-33.447
	c-19.6-0.3-38.061,11.393-45.344,28.725c-0.5,1.19-0.972,2.392-1.459,3.597c-2.152-1.037-4.528-1.575-6.936-1.633
	c0.016,0.386-0.028,0.774-0.132,1.144c2.574,0.132,5.179,0.917,7.827,2.328c4.208-13.17,12.534-22.717,24.953-28.557
	c8.898-4.184,18.311-5.403,27.99-3.942c19.786,2.986,36.973,17.848,39.55,40.554c3.048,0.801,6.154,1.455,9.15,2.443
	c5.155,1.699,9.802,4.424,13.412,8.485c1.703,1.919,3.278,2.143,5.567,1.691c6.822-1.346,14.608,2.112,18.468,8.206
	c4.104,6.479,4.188,13.179,0.011,19.591c-3.954,6.067-9.862,8.653-17.083,8.53c-1.071-0.019-2.553,0.583-3.186,1.405
	c-13.768,17.849-39.86,20.16-56.597,4.934c-0.546-0.497-1.12-0.963-1.771-1.521c-6.147,4.581-13,6.99-20.562,6.275
	c-3.941-0.372-7.773-1.841-11.685-2.672c-0.902-0.191-2.326-0.169-2.839,0.379c-11.071,11.867-32.677,8.729-39.017-8.785
	c-0.062-0.167-0.172-0.321-0.142-0.267c-4.401,1.301-8.665,3.078-13.098,3.764c-9.84,1.521-19.309,0.11-27.755-5.583
	c-14.116-9.518-14.065-26.054,0.111-35.461c1.5-0.995,3.031-1.852,4.589-2.584c-0.307-0.282-0.56-0.616-0.755-0.978
	c-3.872,1.872-7.448,4.557-10.647,8.247c-7.296,8.41-6.668,20.182,1.277,27.977c8.177,8.021,18.256,11.034,29.399,10.11
	c5.424-0.448,10.744-2.128,16.255-3.283c0.774,1.345,1.656,3.224,2.845,4.882c8.612,12.013,24.921,13.875,36.429,4.157
	c1.308-1.103,2.274-1.609,4.153-0.933c3.142,1.131,6.477,1.982,9.795,2.32c7.844,0.797,15.07-1.241,21.515-5.849
	c0.5,0.408,0.881,0.676,1.217,0.994c15.949,15.149,44.822,13.219,57.815-4.744c0.613-0.847,2.208-1.432,3.322-1.4
	c8.187,0.239,16.298-4.825,19.328-12.559C234.198,80.945,233.335,74.497,228.722,68.882z"/>
<path fill-rule="evenodd" clip-rule="evenodd" fill="#FFFFFF" d="M59.847,67.192c1.185,0.215,2.26,0.409,3.802,0.689
	c-1.568,6.539-3.061,12.879-4.652,19.197c-0.121,0.479-0.913,1.095-1.423,1.123c-2.856,0.162-5.722,0.223-8.583,0.191
	c-1.159-0.013-1.678-0.806-1.42-1.979c0.773-3.521,1.487-7.056,2.406-10.54c0.17-0.645,1.118-1.25,1.84-1.541
	c0.869-0.35,1.874-0.421,2.829-0.481c3.804-0.241,3.795-0.224,4.531-4.028C59.342,68.971,59.603,68.137,59.847,67.192z
	 M57.541,77.606c-0.162-0.229-0.324-0.459-0.485-0.689c-1.26,0.372-3.298,0.405-3.633,1.178c-0.95,2.194-1.205,4.688-1.734,7.064
	c0.247,0.207,0.493,0.415,0.739,0.621c1.15-0.391,3.001-0.485,3.319-1.232C56.673,82.375,56.986,79.939,57.541,77.606z"/>
<path fill-rule="evenodd" clip-rule="evenodd" fill="#FFFFFF" d="M130.909,88.512c-1.368,0-2.473,0-3.885,0
	c1.523-7.154,3.016-14.168,4.565-21.471c1.347,0.9,3.602-0.44,3.468,2.126c-0.076,1.446-0.592,2.872-0.929,4.402
	c2.117,0.231,4.066,0.446,6.019,0.653c1.212,0.131,1.604,0.676,1.356,1.952c-0.717,3.695-1.217,7.438-1.971,11.126
	c-0.513,2.496-2.573,0.761-4.173,1.474c0.755-3.905,1.446-7.476,2.129-11.006c-3.217-1.268-4.018-0.871-4.649,2.065
	C132.221,82.707,131.563,85.573,130.909,88.512z"/>
<path fill-rule="evenodd" clip-rule="evenodd" fill="#FFFFFF" d="M167.441,83.038c-0.073,0.854-0.126,1.478-0.215,2.521
	c2.628-0.178,5.031-0.339,7.564-0.512c-0.043,2.137-0.953,3.474-3.207,3.515c-2.365,0.041-4.735,0.005-7.098-0.102
	c-1.235-0.056-1.881-0.78-1.593-2.091c0.776-3.528,1.499-7.071,2.401-10.567c0.156-0.602,1.047-1.347,1.679-1.433
	c2.192-0.304,4.427-0.526,6.634-0.446c2.979,0.105,3.481,0.822,3.026,3.698c-0.274,1.742-0.682,3.463-1.073,5.417
	C172.871,83.038,170.225,83.038,167.441,83.038z M172.661,77.669c-3.211-1.067-4.064-0.678-4.289,1.955
	C169.948,79.327,172.184,80.834,172.661,77.669z"/>
<path fill-rule="evenodd" clip-rule="evenodd" fill="#FFFFFF" d="M71.466,77.174c-2.392,0.113-4.784,0.225-7.331,0.343
	c0.001-1.658,0.409-3.222,2.62-3.326c2.427-0.117,4.865-0.068,7.297-0.019c1.293,0.026,1.882,0.783,1.607,2.068
	c-0.768,3.604-1.523,7.213-2.401,10.791c-0.12,0.486-0.892,1.125-1.394,1.155c-2.864,0.17-5.741,0.262-8.604,0.156
	c-0.495-0.02-1.395-1.171-1.34-1.72c0.19-1.887,0.626-3.768,1.182-5.586c0.168-0.55,0.98-1.152,1.586-1.27
	c1.667-0.32,3.394-0.32,5.069-0.606c0.704-0.12,1.339-0.641,2.003-0.979C71.663,77.847,71.564,77.511,71.466,77.174z M65.874,84.939
	c3.254,1.244,4.417,0.658,4.304-2.051C66.882,82.233,66.534,82.39,65.874,84.939z"/>
<path fill-rule="evenodd" clip-rule="evenodd" fill="#FFFFFF" d="M109.426,77.163c-2.392,0.118-4.783,0.239-7.341,0.365
	c0.095-1.685,0.502-3.233,2.714-3.362c2.215-0.132,4.439-0.217,6.655-0.159c1.656,0.044,2.605,0.917,2.201,2.73
	c-0.753,3.384-1.455,6.782-2.344,10.129c-0.157,0.597-1.089,1.349-1.71,1.394c-2.718,0.199-5.452,0.221-8.179,0.187
	c-1.263-0.015-1.833-0.826-1.581-2.104c0.329-1.658,0.512-3.374,1.088-4.944c0.266-0.726,1.245-1.47,2.032-1.66
	c1.568-0.378,3.242-0.296,4.842-0.578c0.689-0.12,1.302-0.67,1.95-1.025C109.644,77.811,109.534,77.485,109.426,77.163z
	 M103.899,85.006c3.419,1.116,4.5,0.525,4.225-2.171C104.733,82.274,104.474,82.399,103.899,85.006z"/>
<path fill-rule="evenodd" clip-rule="evenodd" fill="#FFFFFF" d="M93.947,73.771c6.454,0.294,5.91,0.6,4.971,5.423
	c-0.464,2.384-1.188,4.716-1.666,7.099c-0.283,1.409-1.144,2.096-2.408,2.158c-2.435,0.125-4.881,0.139-7.319,0.082
	c-1.69-0.041-2.282-1.075-1.943-2.676c0.61-2.888,1.307-5.76,1.829-8.664c0.418-2.328,1.922-3.126,4.022-3.28
	C92.324,73.847,93.217,73.812,93.947,73.771z M89.649,85.088c3.653,0.767,4.065,0.566,4.732-2.304
	c0.396-1.706,0.628-3.447,1.076-5.978c-1.729,0.527-3.747,0.57-4.094,1.354C90.416,80.304,90.172,82.757,89.649,85.088z"/>
<path fill-rule="evenodd" clip-rule="evenodd" fill="#FFFFFF" d="M151.887,88.501c-1.252,0-2.417,0-4.028,0
	c1.141-4.434,2.21-8.688,3.362-12.917c0.128-0.465,0.729-1.121,1.13-1.135c3.082-0.119,6.166-0.145,9.248-0.062
	c0.33,0.007,0.963,0.928,0.901,1.342c-0.598,3.939-1.143,7.902-2.14,11.746c-0.196,0.766-2.253,1.051-3.453,1.557
	c-0.158-0.197-0.315-0.396-0.475-0.594c0.691-3.567,1.384-7.135,2.065-10.658c-3.098-1.252-3.914-0.871-4.637,2.109
	C153.184,82.684,152.574,85.494,151.887,88.501z"/>
<path fill-rule="evenodd" clip-rule="evenodd" fill="#FFFFFF" d="M179.352,88.23c0.619-3.762,1.155-7.022,1.717-10.431
	c-1.003-0.105-1.997-0.207-2.994-0.312c0.464-2.821,0.765-3.09,3.631-3.326c1.408-3.648,1.408-3.648,4.801-3.824
	c-0.06,0.656-0.099,1.279-0.177,1.897c-0.074,0.571-0.188,1.139-0.343,2.043c1.148,0,2.087,0,3.025,0c0.89,0,1.778,0,2.693,0
	c-0.678,3.19-0.871,3.511-3.886,3.298c-2.231-0.157-3.066,0.625-3.205,2.771c-0.104,1.587-0.57,3.149-0.961,5.166
	c2.196-0.133,3.999-0.241,5.796-0.35c-0.2,3.028-0.506,3.515-3.358,3.595C183.921,88.818,181.737,88.434,179.352,88.23z"/>
<path fill-rule="evenodd" clip-rule="evenodd" fill="#FFFFFF" d="M118.579,85.56c2.562-0.184,4.965-0.355,7.387-0.528
	c0.035,2.654-1.572,3.571-3.901,3.599c-2.07,0.024-4.147-0.023-6.213-0.15c-1.332-0.082-1.978-0.868-1.673-2.251
	c0.747-3.388,1.416-6.799,2.319-10.145c0.195-0.719,1.19-1.615,1.921-1.724c2.261-0.334,4.583-0.535,6.858-0.397
	c2.765,0.165,2.891,0.524,2.436,3.696c-1.469-0.162-2.957-0.352-4.45-0.486c-2.924-0.26-3.265-0.027-3.973,2.771
	c-0.288,1.146-0.512,2.309-0.695,3.474C118.505,83.983,118.579,84.578,118.579,85.56z"/>
<path fill-rule="evenodd" clip-rule="evenodd" fill="#FFFFFF" d="M87.175,73.629c-0.48,2.418-1.101,3.941-3.537,3.549
	c-1.443-0.232-1.862,0.899-2.113,2.02c-0.689,3.08-1.345,6.168-2.027,9.308c-1.265,0-2.432,0-4.062,0
	c1.165-4.505,2.246-8.83,3.447-13.121c0.129-0.46,0.935-0.954,1.485-1.033C82.554,74.03,84.762,73.868,87.175,73.629z"/>
<path fill-rule="evenodd" clip-rule="evenodd" fill="#FFFFFF" d="M146.148,85.327c-0.029,3.381-0.46,3.681-4.441,3.103
	C141.616,84.998,142.161,84.573,146.148,85.327z"/>
<path fill-rule="evenodd" clip-rule="evenodd" fill="#FFFFFF" d="M108.11,39.475c1.169,0.21,2.241,0.403,3.607,0.649
	c-0.757,3.738-1.422,7.323-2.221,10.878c-0.597,2.653-1.285,5.294-2.116,7.883c-0.218,0.681-1.079,1.587-1.703,1.635
	c-2.779,0.215-5.58,0.215-8.37,0.173c-1.34-0.021-1.711-0.978-1.451-2.173c0.688-3.163,1.477-6.306,2.08-9.484
	c0.332-1.746,1.308-2.519,2.959-2.684c0.664-0.065,1.323-0.182,1.986-0.221c3.853-0.229,3.844-0.225,4.569-3.98
	C107.617,41.294,107.867,40.454,108.11,39.475z M99.947,57.381c0.213,0.208,0.426,0.417,0.639,0.625
	c1.173-0.342,3.082-0.373,3.383-1.084c0.946-2.229,1.286-4.716,1.86-7.102c-0.177-0.205-0.354-0.409-0.532-0.613
	c-1.238,0.335-3.258,0.338-3.571,1.07C100.778,52.494,100.491,54.993,99.947,57.381z"/>
<path fill-rule="evenodd" clip-rule="evenodd" fill="#FFFFFF" d="M73.324,61.181c-5.783,0.021-6.296-0.452-5.626-5.335
	c0.31-2.253,1.088-4.438,1.524-6.679c0.349-1.791,1.328-2.801,3.123-2.818c2.434-0.022,4.88-0.004,7.298,0.234
	c0.517,0.05,1.407,1.204,1.319,1.709c-0.638,3.7-1.438,7.374-2.31,11.027c-0.116,0.485-0.859,1.026-1.407,1.164
	C75.74,60.86,74.184,61.037,73.324,61.181z M71.354,57.401c3.684,0.709,4.038,0.538,4.707-2.364
	c0.394-1.703,0.624-3.443,0.923-5.142c-2.769-0.806-3.875-0.608-4.274,0.92C72.155,52.94,71.812,55.12,71.354,57.401z"/>
<path fill-rule="evenodd" clip-rule="evenodd" fill="#FFFFFF" d="M96.365,46.684c-1.05,4.138-2.006,8.14-3.125,12.097
	c-0.196,0.692-1.043,1.653-1.649,1.699c-2.857,0.216-5.734,0.221-8.602,0.165c-1.161-0.023-1.557-0.729-1.302-1.997
	c0.781-3.905,1.42-7.839,2.141-11.911c1.327,0,2.542,0,3.977,0c-0.683,3.596-1.349,7.104-2.008,10.578
	c3.404,0.927,3.973,0.622,4.659-2.325c0.636-2.728,1.232-5.465,1.87-8.306C93.599,46.684,94.832,46.684,96.365,46.684z"/>
<path fill-rule="evenodd" clip-rule="evenodd" fill="#FFFFFF" d="M60.98,49.911c-2.077-0.172-4.001-0.509-5.899-0.402
	c-0.753,0.043-1.867,0.943-2.095,1.677c-0.624,2.003-0.863,4.126-1.344,6.682c2.908-0.204,5.313-0.374,7.724-0.542
	c-0.008,2.466-1.356,3.583-3.703,3.574c-2.218-0.008-4.438-0.064-6.652-0.2c-1.15-0.071-1.701-0.802-1.443-1.982
	c0.772-3.532,1.486-7.082,2.408-10.575c0.17-0.644,1.163-1.425,1.853-1.51c2.342-0.288,4.737-0.517,7.081-0.344
	C61.554,46.482,61.73,47.011,60.98,49.911z"/>
<path fill-rule="evenodd" clip-rule="evenodd" fill="#FFFFFF" d="M64.36,60.748c-1.445,0-2.606,0-3.943,0
	c1.534-7.173,3.034-14.187,4.525-21.166c3.733,0.435,3.777,0.444,3.116,3.66C66.859,49.07,65.603,54.885,64.36,60.748z"/>
<path fill-rule="evenodd" clip-rule="evenodd" fill="#FFFFFF" d="M113.536,57.535c-0.095,3.485-0.542,3.79-4.491,3.163
	C108.993,57.307,109.415,56.996,113.536,57.535z"/>
</svg>
