<?xml version="1.0" encoding="UTF-8" standalone="no"?>
<!-- Created with Inkscape (http://www.inkscape.org/) -->

<svg
   xmlns:dc="http://purl.org/dc/elements/1.1/"
   xmlns:cc="http://creativecommons.org/ns#"
   xmlns:rdf="http://www.w3.org/1999/02/22-rdf-syntax-ns#"
   xmlns:svg="http://www.w3.org/2000/svg"
   xmlns="http://www.w3.org/2000/svg"
   xmlns:sodipodi="http://sodipodi.sourceforge.net/DTD/sodipodi-0.dtd"
   xmlns:inkscape="http://www.inkscape.org/namespaces/inkscape"
   width="350"
   height="30"
   viewBox="0 0 92.604169 7.9374999"
   version="1.1"
   id="svg16"
   inkscape:version="0.92.4 5da689c313, 2019-01-14"
   sodipodi:docname="daroachnet_blog_stroke.svg">
  <defs
     id="defs10" />
  <sodipodi:namedview
     id="base"
     pagecolor="#ffffff"
     bordercolor="#666666"
     borderopacity="1.0"
     inkscape:pageopacity="0.0"
     inkscape:pageshadow="2"
     inkscape:zoom="2.8"
     inkscape:cx="263.69967"
     inkscape:cy="21.274879"
     inkscape:document-units="mm"
     inkscape:current-layer="layer1"
     showgrid="false"
     units="px"
     inkscape:window-width="1920"
     inkscape:window-height="1056"
     inkscape:window-x="1920"
     inkscape:window-y="0"
     inkscape:window-maximized="0" />
  <metadata
     id="metadata13">
    <rdf:RDF>
      <cc:Work
         rdf:about="">
        <dc:format>image/svg+xml</dc:format>
        <dc:type
           rdf:resource="http://purl.org/dc/dcmitype/StillImage" />
        <dc:title></dc:title>
      </cc:Work>
    </rdf:RDF>
  </metadata>
  <g
     inkscape:label="Layer 1"
     inkscape:groupmode="layer"
     id="layer1"
     transform="translate(0,-289.0625)">
    <path
       id="path26"
       d="m 14.093285,293.1818 c 4.803349,-0.46485 9.620846,-0.75698 14.437522,-1.04116 1.234006,-0.0647 2.467141,-0.14886 3.702015,-0.194 2.635502,-0.0963 8.258792,-0.18395 10.758689,-0.2198 5.892752,-0.0845 11.784303,-0.0974 17.677534,-0.10038 6.997168,6.4e-4 13.992564,0.15998 20.987691,0.30829 0,0 -1.758121,1.27128 -1.758121,1.27128 v 0 c -6.963711,-0.1677 -13.92764,-0.35248 -20.893852,-0.37058 -10.798757,-0.021 -21.609007,-0.022 -32.388336,0.71439 -4.917667,0.32364 -9.842327,0.63705 -14.731535,1.2741 0,0 2.208393,-1.64214 2.208393,-1.64214 z"
       inkscape:connector-curvature="0"
       style="stroke-width:0.26458332" />
  </g>
</svg>
