<?xml version="1.0" encoding="utf-8"?>
<!-- Generator: Adobe Illustrator 16.0.0, SVG Export Plug-In . SVG Version: 6.00 Build 0)  -->
<!DOCTYPE svg PUBLIC "-//W3C//DTD SVG 1.1//EN" "http://www.w3.org/Graphics/SVG/1.1/DTD/svg11.dtd">
<svg version="1.1" id="Layer_1" xmlns="http://www.w3.org/2000/svg" xmlns:xlink="http://www.w3.org/1999/xlink" x="0px" y="0px"
	 width="72px" height="72px" viewBox="0 0 72 72" enable-background="new 0 0 72 72" xml:space="preserve">
<circle fill="#60C8D3" cx="36" cy="36" r="33.825"/>
<circle fill="#FFFFFF" cx="36" cy="35.988" r="17.062"/>
<polygon fill="#FFFFFF" stroke="#ED1D7F" stroke-miterlimit="10" points="35.726,14.632 36.271,14.627 36.271,6.456 35.726,6.457 
	"/>
<polygon fill="#FFFFFF" stroke="#ED1D7F" stroke-miterlimit="10" points="40.487,15.107 41.021,15.224 42.84,7.256 42.306,7.136 "/>
<polygon fill="#FFFFFF" stroke="#ED1D7F" stroke-miterlimit="10" points="45.023,16.628 45.518,16.861 49.063,9.498 48.57,9.264 "/>
<polygon fill="#FFFFFF" stroke="#ED1D7F" stroke-miterlimit="10" points="49.107,19.122 49.536,19.458 54.633,13.071 54.204,12.73 
	"/>
<rect x="55.628" y="16.039" transform="matrix(-0.6267 -0.7793 0.7793 -0.6267 75.2478 76.3022)" fill="#FFFFFF" stroke="#ED1D7F" stroke-miterlimit="10" width="0.547" height="8.174"/>
<rect x="54.847" y="24.68" transform="matrix(0.901 -0.4339 0.4339 0.901 -4.9901 28.0419)" fill="#FFFFFF" stroke="#ED1D7F" stroke-miterlimit="10" width="8.176" height="0.545"/>
<polygon fill="#FFFFFF" stroke="#ED1D7F" stroke-miterlimit="10" points="64.74,29.158 56.77,30.977 56.896,31.509 64.865,29.69 "/>
<polygon fill="#FFFFFF" stroke="#ED1D7F" stroke-miterlimit="10" points="65.541,35.725 57.367,35.725 57.369,36.27 65.545,36.27 
	"/>
<rect x="60.546" y="37.577" transform="matrix(0.2192 -0.9757 0.9757 0.2192 6.8352 91.8685)" fill="#FFFFFF" stroke="#ED1D7F" stroke-miterlimit="10" width="0.543" height="8.174"/>
<rect x="58.663" y="42.957" transform="matrix(0.4292 -0.9032 0.9032 0.4292 -8.8511 80.0806)" fill="#FFFFFF" stroke="#ED1D7F" stroke-miterlimit="10" width="0.546" height="8.173"/>
<polygon fill="#FFFFFF" stroke="#ED1D7F" stroke-miterlimit="10" points="52.538,49.536 58.93,54.634 59.267,54.205 52.876,49.107 
	"/>
<rect x="47.784" y="55.628" transform="matrix(-0.6233 -0.782 0.782 -0.6233 40.4938 131.3083)" fill="#FFFFFF" stroke="#ED1D7F" stroke-miterlimit="10" width="8.176" height="0.546"/>
<polygon fill="#FFFFFF" stroke="#ED1D7F" stroke-miterlimit="10" points="45.025,55.372 48.573,62.738 49.064,62.497 45.518,55.134 
	"/>
<polygon fill="#FFFFFF" stroke="#ED1D7F" stroke-miterlimit="10" points="40.489,56.896 42.308,64.866 42.84,64.741 41.021,56.771 
	"/>
<rect x="35.728" y="57.368" fill="#FFFFFF" stroke="#ED1D7F" stroke-miterlimit="10" width="0.546" height="8.175"/>
<rect x="30.063" y="56.731" transform="matrix(-0.9754 -0.2203 0.2203 -0.9754 46.5239 126.8261)" fill="#FFFFFF" stroke="#ED1D7F" stroke-miterlimit="10" width="0.545" height="8.175"/>
<rect x="24.681" y="54.847" transform="matrix(-0.9016 -0.4325 0.4325 -0.9016 21.9654 122.8648)" fill="#FFFFFF" stroke="#ED1D7F" stroke-miterlimit="10" width="0.546" height="8.174"/>
<rect x="19.854" y="51.816" transform="matrix(-0.785 -0.6194 0.6194 -0.785 1.2993 112.2556)" fill="#FFFFFF" stroke="#ED1D7F" stroke-miterlimit="10" width="0.545" height="8.173"/>
<rect x="15.823" y="47.783" transform="matrix(-0.6234 -0.7819 0.7819 -0.6234 -14.4266 96.7926)" fill="#FFFFFF" stroke="#ED1D7F" stroke-miterlimit="10" width="0.548" height="8.174"/>
<rect x="12.79" y="42.957" transform="matrix(-0.4372 -0.8994 0.8994 -0.4372 -23.5347 79.3603)" fill="#FFFFFF" stroke="#ED1D7F" stroke-miterlimit="10" width="0.547" height="8.173"/>
<rect x="10.908" y="37.576" transform="matrix(-0.2257 -0.9742 0.9742 -0.2257 -26.8829 61.9596)" fill="#FFFFFF" stroke="#ED1D7F" stroke-miterlimit="10" width="0.547" height="8.175"/>
<rect x="6.458" y="35.728" fill="#FFFFFF" stroke="#ED1D7F" stroke-miterlimit="10" width="8.174" height="0.544"/>
<rect x="7.095" y="30.064" transform="matrix(-0.975 -0.2222 0.2222 -0.975 15.345 62.3977)" fill="#FFFFFF" stroke="#ED1D7F" stroke-miterlimit="10" width="8.175" height="0.543"/>
<rect x="8.978" y="24.682" transform="matrix(-0.9011 -0.4337 0.4337 -0.9011 14.0152 53.1069)" fill="#FFFFFF" stroke="#ED1D7F" stroke-miterlimit="10" width="8.174" height="0.546"/>
<rect x="12.009" y="19.856" transform="matrix(-0.782 -0.6233 0.6233 -0.782 16.1377 45.9013)" fill="#FFFFFF" stroke="#ED1D7F" stroke-miterlimit="10" width="8.175" height="0.545"/>
<rect x="16.04" y="15.823" transform="matrix(-0.6236 -0.7818 0.7818 -0.6236 20.0955 41.8691)" fill="#FFFFFF" stroke="#ED1D7F" stroke-miterlimit="10" width="8.176" height="0.546"/>
<rect x="20.867" y="12.791" transform="matrix(-0.4339 -0.901 0.901 -0.4339 24.0131 41.216)" fill="#FFFFFF" stroke="#ED1D7F" stroke-miterlimit="10" width="8.175" height="0.546"/>
<rect x="26.247" y="10.909" transform="matrix(-0.2224 -0.975 0.975 -0.2224 26.1796 43.2435)" fill="#FFFFFF" stroke="#ED1D7F" stroke-miterlimit="10" width="8.177" height="0.545"/>
<rect x="35.727" y="6.456" fill="#FFFFFF" stroke="#ED1D7F" stroke-miterlimit="10" width="0.545" height="8.176"/>
<g>
	<path d="M31.978,23.767h1.305v5.337c0.091-0.173,0.185-0.319,0.28-0.437c0.096-0.119,0.189-0.209,0.28-0.273
		c0.182-0.137,0.419-0.205,0.711-0.205c0.301,0,0.561,0.069,0.779,0.208c0.218,0.139,0.397,0.354,0.536,0.646
		c0.139,0.292,0.243,0.663,0.311,1.114s0.103,0.986,0.103,1.606c0,1.285-0.137,2.227-0.41,2.826s-0.702,0.899-1.285,0.899
		c-0.31,0-0.558-0.073-0.745-0.219c-0.187-0.146-0.374-0.412-0.561-0.8v0.909h-1.305V23.767z M34.93,31.879
		c0-0.961-0.064-1.613-0.191-1.955c-0.123-0.369-0.344-0.554-0.663-0.554c-0.301,0-0.513,0.187-0.636,0.561
		c-0.123,0.369-0.185,1.007-0.185,1.914c0,0.902,0.062,1.541,0.185,1.914c0.123,0.369,0.335,0.553,0.636,0.553
		c0.31,0,0.531-0.182,0.663-0.546C34.866,33.429,34.93,32.8,34.93,31.879z"/>
	<path d="M40.391,28.442v1.333c-0.182-0.223-0.4-0.335-0.656-0.335c-0.72,0-1.079,0.779-1.079,2.337
		c0,1.654,0.357,2.481,1.072,2.481c0.201,0,0.422-0.089,0.663-0.266v1.223c-0.346,0.182-0.697,0.273-1.052,0.273
		c-1.404,0-2.105-1.194-2.105-3.582c0-1.271,0.173-2.208,0.52-2.812c0.346-0.604,0.884-0.905,1.613-0.905
		C39.717,28.189,40.059,28.273,40.391,28.442z"/>
	<path d="M22.668,32.598h1.305V44.21h-1.305V32.598z"/>
	<path d="M29.633,40.731c0,2.392-0.74,3.588-2.221,3.588s-2.221-1.214-2.221-3.643c0-2.438,0.738-3.657,2.214-3.657
		c0.383,0,0.714,0.073,0.995,0.219s0.511,0.371,0.693,0.677c0.183,0.306,0.318,0.69,0.407,1.155S29.633,40.089,29.633,40.731z
		 M28.28,40.697c0-0.93-0.062-1.577-0.185-1.941c-0.123-0.369-0.342-0.554-0.656-0.554c-0.31,0-0.531,0.183-0.663,0.547
		c-0.123,0.364-0.185,1-0.185,1.907c0,0.906,0.062,1.54,0.185,1.899c0.132,0.365,0.353,0.547,0.663,0.547s0.526-0.18,0.649-0.54
		C28.216,42.226,28.28,41.604,28.28,40.697z"/>
	<path d="M33.59,37.136h1.312v7.3c0,0.875-0.086,1.48-0.26,1.818c-0.319,0.619-0.959,0.929-1.92,0.929
		c-0.633,0-1.13-0.18-1.49-0.539c-0.365-0.365-0.547-0.854-0.547-1.47l0.007-0.219h1.264c0,0.752,0.28,1.128,0.841,1.128
		c0.305,0,0.513-0.096,0.622-0.287c0.114-0.183,0.171-0.545,0.171-1.087v-1.36c-0.278,0.647-0.704,0.971-1.278,0.971
		c-0.592,0-1.028-0.287-1.309-0.861s-0.42-1.472-0.42-2.692c0-1.294,0.134-2.249,0.403-2.864c0.264-0.588,0.704-0.882,1.319-0.882
		c0.292,0,0.529,0.071,0.711,0.212c0.182,0.142,0.374,0.392,0.574,0.752V37.136z M33.611,40.738c0-1.69-0.292-2.536-0.875-2.536
		c-0.278,0-0.481,0.19-0.608,0.571c-0.127,0.38-0.191,0.989-0.191,1.828c0,0.889,0.066,1.542,0.198,1.961
		c0.137,0.388,0.365,0.581,0.684,0.581c0.301,0,0.508-0.173,0.622-0.52C33.554,42.301,33.611,41.672,33.611,40.738z"/>
	<path d="M39.119,37.136h1.312v7.3c0,0.875-0.087,1.48-0.26,1.818c-0.318,0.619-0.959,0.929-1.92,0.929
		c-0.634,0-1.13-0.18-1.49-0.539c-0.365-0.365-0.547-0.854-0.547-1.47l0.007-0.219h1.264c0,0.752,0.281,1.128,0.842,1.128
		c0.305,0,0.512-0.096,0.621-0.287c0.114-0.183,0.171-0.545,0.171-1.087v-1.36c-0.277,0.647-0.703,0.971-1.277,0.971
		c-0.593,0-1.029-0.287-1.309-0.861s-0.42-1.472-0.42-2.692c0-1.294,0.134-2.249,0.403-2.864c0.264-0.588,0.704-0.882,1.319-0.882
		c0.291,0,0.528,0.071,0.71,0.212c0.183,0.142,0.374,0.392,0.574,0.752V37.136z M39.14,40.738c0-1.69-0.291-2.536-0.874-2.536
		c-0.278,0-0.481,0.19-0.608,0.571c-0.128,0.38-0.191,0.989-0.191,1.828c0,0.889,0.066,1.542,0.198,1.961
		c0.137,0.388,0.364,0.581,0.684,0.581c0.3,0,0.508-0.173,0.621-0.52C39.083,42.301,39.14,41.672,39.14,40.738z"/>
	<path d="M44.642,41.824h1.217c-0.096,1.664-0.779,2.495-2.05,2.495c-0.379,0-0.703-0.07-0.975-0.212
		c-0.271-0.142-0.495-0.36-0.673-0.656s-0.309-0.672-0.394-1.128c-0.084-0.455-0.126-0.997-0.126-1.626
		c0-1.249,0.174-2.174,0.522-2.775s0.888-0.902,1.617-0.902c1.417,0,2.125,1.249,2.125,3.746v0.164H42.92
		c0,1.513,0.301,2.269,0.902,2.269C44.368,43.198,44.642,42.74,44.642,41.824z M44.573,39.986c-0.055-0.743-0.139-1.23-0.253-1.463
		c-0.118-0.26-0.31-0.39-0.573-0.39c-0.27,0-0.461,0.13-0.574,0.39c-0.114,0.232-0.198,0.72-0.253,1.463H44.573z"/>
	<path d="M47.068,37.136h1.306v0.882c0.223-0.374,0.444-0.636,0.663-0.786c0.218-0.15,0.508-0.236,0.867-0.259v1.367
		c-0.091-0.014-0.168-0.021-0.232-0.021c-0.469,0-0.804,0.121-1.004,0.362c-0.196,0.237-0.294,0.651-0.294,1.244v4.285h-1.306
		V37.136z"/>
</g>
<circle fill="none" stroke="#000000" stroke-miterlimit="10" cx="36" cy="36" r="35.119"/>
<g>
</g>
<g>
</g>
<g>
</g>
<g>
</g>
<g>
</g>
<g>
</g>
</svg>
