<?xml version="1.0" encoding="utf-8"?>
<!-- Generator: Adobe Illustrator 16.0.0, SVG Export Plug-In . SVG Version: 6.00 Build 0)  -->
<!DOCTYPE svg PUBLIC "-//W3C//DTD SVG 1.1//EN" "http://www.w3.org/Graphics/SVG/1.1/DTD/svg11.dtd">
<svg version="1.1" id="Layer_1" xmlns="http://www.w3.org/2000/svg" xmlns:xlink="http://www.w3.org/1999/xlink" x="0px" y="0px"
	 width="340.56px" height="316.8px" viewBox="0 0 340.56 316.8" enable-background="new 0 0 340.56 316.8" xml:space="preserve">
<g>
	<path fill="#010101" d="M321.138,157.485c0,83.664-67.821,151.474-151.495,151.474c-83.653,0-151.475-67.811-151.475-151.474
		C18.167,73.831,85.989,6,169.643,6C253.316,6,321.138,73.831,321.138,157.485z"/>
	<path fill="#F5EB11" d="M309.287,157.485c0,77.115-62.521,139.626-139.645,139.626c-77.115,0-139.625-62.512-139.625-139.626
		c0-77.114,62.51-139.625,139.625-139.625C246.766,17.86,309.287,80.371,309.287,157.485z"/>
	<g>
		<path fill="#010101" d="M94.669,92.502c0.204-0.004,0.503,0.052,0.898,0.169c-2.859,4.119-3.903,14.58-3.132,31.382
			c0.659,9.078,1.354,18.231,2.086,27.457c-2.104,5.674-4.643,8.839-7.612,9.498c-3.205,0.71-6.711-1.055-10.521-5.295
			c-0.274-0.308-0.492-0.649-0.656-1.022c-0.169-0.208-0.313-0.485-0.43-0.828c-0.282-0.716-0.535-1.583-0.76-2.599
			c-1.117-5.041-1.761-14.143-1.93-27.308c-0.245-18.681,0.649-28.248,2.681-28.698L74.648,95.4
			c-0.062,0.097-0.224,0.38-0.489,0.847c0.047,0.031,0.076,0.065,0.084,0.104l-0.059,0.013c-0.039,0.009-0.269-0.104-0.69-0.339
			c-0.309-0.094-0.529-0.169-0.664-0.223c-2.497,0.76-4.833,1.501-7.009,2.229c-5.003,1.848-7.902,3.289-8.696,4.327
			c-0.461,0.512-0.946,0.824-1.453,0.937c-2.696,0.598-6.312-3.603-10.848-12.602c-0.477-1.042-0.811-1.808-1.001-2.299
			l-0.501-1.427c9.359-3.835,18.344-7.508,26.955-11.015c16.884-6.692,29.038-10.862,36.464-12.507
			c1.484-0.329,2.764-0.57,3.836-0.727c2.822-0.215,5.726,2.626,8.715,8.523c0.728,1.438,1.288,2.667,1.678,3.688
			c0.282,0.717,0.479,1.329,0.591,1.837c0.242,1.094,0.118,1.921-0.372,2.481c-0.791,0.873-8.797,3.876-24.017,9.011L94.669,92.502z
			"/>
		<path fill="#010101" d="M121.332,153.441c-9.422,1.146-15.28-0.589-17.573-5.207c-0.169-0.208-0.312-0.485-0.429-0.827
			c-0.125-0.383-0.236-0.788-0.332-1.219c-0.156-0.702-0.257-1.438-0.305-2.207c-0.047-9.461,5.336-25.781,16.148-48.963
			c10.771-23.173,18.797-35.345,24.072-36.514l0.293-0.065c0.361-0.038,0.677-0.088,0.951-0.149c0.625-0.138,1.257-0.34,1.896-0.604
			c1.341-0.42,2.149-0.661,2.423-0.722c2.423-0.537,5.858,0.446,10.307,2.943c1.788,1.039,3.861,3.921,6.221,8.646
			c1.808,3.534,3.637,7.721,5.489,12.559c2.747,7.222,5.626,15.952,8.632,26.192c2.383,8.164,4.047,14.375,4.99,18.634
			c1.039,4.689,1.15,7.413,0.334,8.167c-1.387,1.333-3.604,2.336-6.651,3.011c-3.908,0.866-6.772,0.517-8.596-1.047
			c-0.586-0.609-1.147-1.386-1.685-2.333c-0.183-0.452-0.373-0.942-0.572-1.473c-0.473-1.206-0.891-2.632-1.255-4.272
			c-0.225-1.017-0.375-1.783-0.448-2.299c-3.134-0.084-6.772,0.333-10.915,1.25c-6.058,1.343-11.868,3.612-17.431,6.814
			c-4.743,2.649-8.053,5.105-9.929,7.366L121.332,153.441z M136.315,113.654l18.733-5.38c2.124-2.07,3.13-3.358,3.018-3.866
			l-0.014-0.06c-0.065-0.108-0.846-2.334-2.34-6.676c-0.729-2.176-1.374-3.979-1.938-5.413c-0.572-1.473-1.043-2.577-1.411-3.316
			c-0.147-0.295-0.238-0.521-0.273-0.677c-0.034-0.156-0.013-0.243,0.066-0.26l0.059-0.013c-0.86-0.178-1.662-0.186-2.404-0.022
			c-3.204,0.71-6.135,4.23-8.791,10.558C139.524,102.141,137.956,107.181,136.315,113.654z"/>
		<path fill="#010101" d="M208.604,37.184c1.563-0.715,3.771-1.389,6.624-2.021c7.229-1.602,14.257-1.991,21.082-1.166
			c9.397,1.156,16.64,4.513,21.725,10.068c0.49,0.547,0.91,1.151,1.263,1.811c0.178,0.248,0.316,0.505,0.416,0.769
			c0.182,0.452,0.325,0.913,0.429,1.381c0.944,4.26-0.692,10.013-4.907,17.261c-4.564,7.899-10.9,15.474-19.011,22.723
			c-8.658,7.74-16.926,12.892-24.802,15.458c0.069,0.312-0.227,3.884-0.886,10.712c-0.884,8.601-1.601,13.597-2.152,14.99
			c-1.34,3.578-3.67,5.734-6.992,6.47c-3.205,0.71-6.749-0.021-10.633-2.195c-3.312-1.808-5.511-3.78-6.6-5.918l-0.156-0.703
			c-0.164-0.742,0.019-1.397,0.548-1.966c3.676-3.396,5.787-13.109,6.335-29.139c-0.024-8.809-0.084-17.59-0.179-26.342
			c0.021-0.457-0.028-0.958-0.149-1.504c-0.164-0.742-0.434-1.585-0.805-2.528c-0.291-0.754-0.666-1.614-1.126-2.58
			c-0.846-1.779-1.513-3.312-2.002-4.599c-0.392-1.02-0.659-1.862-0.807-2.527l-0.13-0.586
			C184.932,50.711,192.57,44.756,208.604,37.184z M210.726,82.837c-0.026-0.117,0.078-0.203,0.312-0.255
			c2.305-0.511,5.72-2.219,10.241-5.127c4.521-2.908,7.592-5.423,9.213-7.546c2.494-3.175,4.864-6.633,7.111-10.369
			c2.814-4.683,4.06-7.767,3.73-9.252l-0.091-0.41l-0.059,0.013c-1.449-1.36-6.083-1.173-13.897,0.558
			c-8.441,1.87-13.554,4.521-15.336,7.948c-0.383,0.866-0.837,4.922-1.361,12.172c-0.352,6.187-0.341,10.12,0.031,11.8
			L210.726,82.837z"/>
		<path fill="#010101" d="M132.382,199.838c0.395,0.856,0.778,1.755,1.151,2.697c0.606,1.629,1.113,3.361,1.521,5.197
			c2.13,9.613,1.146,21.926-2.947,36.937c-1.616,5.853-6.672,11.339-15.171,16.46c-7.02,4.221-14.514,7.213-22.486,8.98
			c-8.833,1.957-16.638,2.067-23.418,0.33c-8.574-2.24-14.801-7.215-18.682-14.924c-0.885-1.772-1.672-3.566-2.36-5.381
			c-0.997-2.648-1.795-5.322-2.392-8.019c-1.299-5.861-1.621-11.94-0.965-18.235c1.144-11.117,4.944-20.795,11.401-29.032
			c6.86-8.817,15.645-14.413,26.353-16.785c9.223-2.044,18.445-1.083,27.667,2.88C121.273,184.906,128.049,191.203,132.382,199.838z
			 M80.805,252.1c3.936,0.934,8.094,0.913,12.471-0.057c7.62-1.689,13.962-8.403,19.028-20.145
			c4.069-9.388,5.372-17.384,3.909-23.988c-0.243-1.094-0.555-2.132-0.936-3.114c-0.265-0.638-0.545-1.252-0.839-1.843
			c-1.787-3.622-5.28-6.066-10.48-7.334c-4.285-1.018-8.577-1.051-12.875-0.098c-10.434,2.311-17.652,8.502-21.652,18.572
			c-2.883,7.156-3.536,14.293-1.96,21.404c0.408,1.839,0.983,3.699,1.729,5.582c0.481,1.248,1.049,2.516,1.704,3.805
			C72.746,248.576,76.046,250.982,80.805,252.1z"/>
		<path fill="#010101" d="M157.708,190.352c1.254,0.297,2.74,0.254,4.46-0.127c1.211-0.27,2.529-0.703,3.954-1.307
			c7.317-3.057,12.618-4.947,15.901-5.676c2.578-0.57,4.129-0.556,4.652,0.045c0.522,0.602,2.1,1.709,4.732,3.318
			c2.633,1.61,4.271,3.041,4.918,4.291l0.155,0.703c0.286,1.291-0.276,2.459-1.683,3.51c-1.842,1.311-8.396,5.223-19.661,11.736
			c-10.237,5.793-15.512,8.726-15.824,8.795c-0.082,0.184-0.086,12.564-0.01,37.146c-0.953,2.18-2.621,3.532-5.004,4.061
			c-2.658,0.589-5.425,0.219-8.303-1.111c-2.878-1.331-4.845-3.088-5.903-5.273c-0.169-0.208-0.304-0.445-0.403-0.709
			c-0.107-0.305-0.192-0.593-0.253-0.867l-0.065-0.293c-1.358-8.35-2.487-21.771-3.388-40.269
			c-1.114-24.269,0.163-37.467,3.834-39.593c3.679-2.084,9.897-4.919,18.656-8.499c9.928-4.045,17.354-6.613,22.277-7.705
			c3.321-0.735,5.417-0.625,6.284,0.33c2.247,2.003,4.011,4.318,5.29,6.945c0.26,0.435,0.458,0.864,0.592,1.284
			c0.2,0.53,0.352,1.029,0.455,1.498c0.407,1.837,0.059,3.41-1.044,4.721c-1.044,1.215-7.549,3.866-19.517,7.952
			c-10.392,3.615-15.562,5.581-15.513,5.898s0.175,2.687,0.376,7.11L157.708,190.352z"/>
		<path fill="#010101" d="M217.617,177.077c1.254,0.297,2.74,0.253,4.461-0.128c1.211-0.268,2.528-0.703,3.953-1.305
			c7.318-3.057,12.618-4.949,15.9-5.676c2.58-0.572,4.13-0.557,4.653,0.045c0.522,0.602,2.1,1.708,4.732,3.317
			c2.632,1.61,4.271,3.041,4.917,4.291l0.156,0.703c0.285,1.29-0.275,2.46-1.683,3.51c-1.842,1.31-8.396,5.222-19.661,11.736
			c-10.237,5.794-15.512,8.726-15.824,8.794c-0.082,0.184-0.086,12.566-0.01,37.147c-0.953,2.179-2.621,3.532-5.004,4.061
			c-2.658,0.589-5.425,0.218-8.303-1.112s-4.845-3.087-5.903-5.271c-0.169-0.209-0.304-0.445-0.403-0.711
			c-0.107-0.303-0.192-0.592-0.254-0.867l-0.064-0.293c-1.357-8.348-2.487-21.771-3.388-40.268
			c-1.114-24.27,0.163-37.467,3.834-39.592c3.679-2.085,9.897-4.919,18.656-8.5c9.928-4.045,17.353-6.613,22.277-7.705
			c3.321-0.736,5.417-0.625,6.284,0.33c2.248,2.003,4.011,4.318,5.291,6.945c0.259,0.435,0.457,0.864,0.592,1.284
			c0.199,0.53,0.351,1.03,0.455,1.499c0.406,1.837,0.058,3.41-1.045,4.721c-1.044,1.215-7.549,3.866-19.517,7.952
			c-10.392,3.615-15.562,5.58-15.513,5.898c0.049,0.316,0.175,2.688,0.376,7.11L217.617,177.077z"/>
		<path fill="#010101" d="M299.059,190.211c0.287,0.184,0.461,0.412,0.521,0.684c0.225,1.018-1.559,1.945-5.35,2.785
			c-2.461,0.545-5.742,1.19-9.841,1.935c-1.464,0.242-4.226,0.731-8.284,1.466c1.49-2.338,1.948-6.008,1.374-11.004
			c-0.993-10.031-1.538-16.1-1.637-18.211c-0.038-1.467-0.779-10.178-2.224-26.135c0.353-2.661,3.616-4.675,9.791-6.043
			c1.485-0.329,4.618-0.9,9.398-1.713c2.762-0.489,5.08-0.942,6.957-1.358c0.898-0.199,1.695-0.395,2.39-0.59l0.353-0.078
			c3.32-0.736,5.611,0.069,6.869,2.414l0.175,0.515c0.116,0.343,0.219,0.71,0.306,1.1c1.126,5.081-1.466,14.756-7.774,29.028
			c-2.493,14.656-3.505,23.039-3.037,25.148L299.059,190.211z M287.623,201.6c5.63,0.803,9.408,3.143,11.334,7.021l0.175,0.514
			c0.125,0.384,0.236,0.789,0.331,1.219c0.217,0.977,0.288,2.131,0.214,3.459l-0.628,2.722c-1.009,2.479-2.116,4.508-3.325,6.087
			c-1.985,2.325-4.204,3.779-6.657,4.365c-1.759,0.39-3.459,0.398-5.1,0.023c-3.92-1.223-6.729-3.449-8.43-6.681
			c-0.164-0.372-0.324-0.728-0.48-1.062c-0.208-0.569-0.369-1.107-0.481-1.616c-0.424-1.913-0.239-3.759,0.557-5.534l2.36-4.889
			l0.281-0.678c1.638-2.412,3.664-3.906,6.078-4.484C285.062,201.799,286.319,201.643,287.623,201.6z"/>
	</g>
	<g>
		<path fill="#CC3432" d="M100,98.432c0.204-0.004,0.503,0.052,0.898,0.17c-2.86,4.118-3.903,14.579-3.132,31.381
			c0.659,9.079,1.354,18.232,2.086,27.457c-2.104,5.674-4.643,8.84-7.612,9.499c-3.205,0.711-6.712-1.055-10.521-5.295
			c-0.274-0.309-0.492-0.648-0.657-1.022c-0.169-0.208-0.313-0.485-0.43-0.828c-0.281-0.716-0.535-1.582-0.76-2.599
			c-1.117-5.042-1.761-14.144-1.931-27.308c-0.244-18.682,0.649-28.248,2.682-28.699l-0.645,0.143
			c-0.062,0.097-0.224,0.378-0.489,0.847c0.047,0.03,0.076,0.065,0.084,0.104l-0.059,0.013c-0.039,0.009-0.269-0.104-0.69-0.34
			c-0.309-0.095-0.53-0.169-0.664-0.222c-2.498,0.759-4.833,1.501-7.01,2.229c-5.002,1.847-7.901,3.289-8.695,4.325
			c-0.462,0.513-0.946,0.825-1.453,0.938c-2.696,0.597-6.313-3.603-10.849-12.603c-0.477-1.042-0.81-1.808-1.001-2.298l-0.501-1.427
			c9.358-3.836,18.343-7.508,26.955-11.016c16.883-6.693,29.038-10.862,36.464-12.508c1.484-0.329,2.764-0.57,3.836-0.727
			c2.822-0.214,5.727,2.627,8.715,8.524c0.727,1.438,1.288,2.667,1.677,3.688c0.282,0.716,0.479,1.329,0.592,1.836
			c0.242,1.095,0.118,1.923-0.373,2.481c-0.791,0.874-8.796,3.877-24.017,9.012L100,98.432z"/>
		<path fill="#CC3432" d="M126.663,159.371c-9.422,1.145-15.28-0.59-17.573-5.207c-0.169-0.209-0.312-0.485-0.43-0.828
			c-0.125-0.382-0.236-0.788-0.332-1.218c-0.155-0.703-0.256-1.439-0.304-2.207c-0.047-9.461,5.336-25.782,16.147-48.964
			c10.772-23.173,18.798-35.345,24.073-36.514l0.293-0.065c0.36-0.038,0.677-0.087,0.951-0.148c0.625-0.139,1.256-0.341,1.895-0.605
			c1.342-0.42,2.149-0.66,2.424-0.721c2.423-0.537,5.857,0.445,10.307,2.943c1.788,1.039,3.861,3.921,6.221,8.646
			c1.807,3.535,3.637,7.721,5.489,12.56c2.747,7.222,5.625,15.951,8.632,26.19c2.383,8.164,4.046,14.377,4.99,18.636
			c1.039,4.688,1.15,7.411,0.333,8.166c-1.386,1.333-3.603,2.335-6.65,3.011c-3.908,0.866-6.773,0.518-8.596-1.047
			c-0.586-0.608-1.148-1.385-1.686-2.333c-0.183-0.451-0.373-0.94-0.572-1.472c-0.473-1.207-0.891-2.631-1.254-4.272
			c-0.226-1.017-0.375-1.782-0.448-2.299c-3.134-0.084-6.773,0.332-10.916,1.25c-6.058,1.342-11.868,3.613-17.431,6.814
			c-4.744,2.65-8.053,5.105-9.93,7.366L126.663,159.371z M141.646,119.583l18.733-5.379c2.124-2.071,3.13-3.358,3.017-3.867
			l-0.013-0.059c-0.065-0.109-0.846-2.335-2.34-6.677c-0.728-2.177-1.374-3.98-1.938-5.414c-0.572-1.472-1.042-2.576-1.411-3.316
			c-0.148-0.294-0.238-0.52-0.273-0.676c-0.034-0.156-0.013-0.243,0.065-0.26l0.059-0.013c-0.861-0.179-1.662-0.186-2.404-0.022
			c-3.205,0.71-6.135,4.23-8.791,10.558C144.855,108.07,143.287,113.111,141.646,119.583z"/>
		<path fill="#CC3432" d="M213.936,43.114c1.562-0.716,3.771-1.389,6.624-2.021c7.229-1.602,14.257-1.991,21.081-1.165
			c9.398,1.156,16.641,4.513,21.726,10.067c0.49,0.548,0.91,1.152,1.263,1.812c0.178,0.248,0.316,0.503,0.416,0.769
			c0.182,0.451,0.324,0.911,0.429,1.381c0.944,4.26-0.692,10.014-4.907,17.262c-4.564,7.899-10.9,15.474-19.012,22.722
			c-8.657,7.741-16.925,12.893-24.801,15.459c0.068,0.312-0.227,3.884-0.887,10.712c-0.883,8.601-1.6,13.597-2.151,14.99
			c-1.339,3.577-3.671,5.734-6.991,6.47c-3.205,0.71-6.75-0.022-10.634-2.196c-3.312-1.808-5.511-3.78-6.601-5.917l-0.155-0.704
			c-0.164-0.741,0.019-1.398,0.548-1.966c3.676-3.397,5.787-13.11,6.336-29.139c-0.026-8.809-0.085-17.589-0.18-26.342
			c0.021-0.456-0.027-0.957-0.149-1.504c-0.164-0.743-0.434-1.585-0.806-2.528c-0.29-0.755-0.665-1.614-1.125-2.579
			c-0.846-1.781-1.514-3.313-2.003-4.599c-0.391-1.021-0.658-1.862-0.806-2.528l-0.13-0.585
			C190.263,56.641,197.901,50.685,213.936,43.114z M216.057,88.767c-0.026-0.117,0.078-0.203,0.312-0.254
			c2.305-0.511,5.719-2.219,10.24-5.127c4.521-2.909,7.593-5.424,9.213-7.546c2.494-3.177,4.865-6.633,7.111-10.371
			c2.816-4.683,4.061-7.766,3.731-9.251l-0.091-0.41l-0.059,0.013c-1.449-1.36-6.083-1.174-13.898,0.558
			c-8.441,1.871-13.553,4.521-15.334,7.948c-0.384,0.864-0.838,4.921-1.363,12.171c-0.351,6.186-0.34,10.12,0.032,11.799
			L216.057,88.767z"/>
		<path fill="#CC3432" d="M137.713,205.768c0.394,0.855,0.778,1.756,1.151,2.697c0.607,1.629,1.113,3.36,1.52,5.197
			c2.13,9.613,1.147,21.926-2.946,36.938c-1.615,5.852-6.672,11.338-15.171,16.459c-7.02,4.221-14.514,7.214-22.486,8.98
			c-8.832,1.957-16.638,2.066-23.418,0.33c-8.574-2.24-14.801-7.215-18.682-14.926c-0.885-1.771-1.672-3.564-2.36-5.379
			c-0.997-2.649-1.795-5.322-2.392-8.018c-1.299-5.863-1.621-11.941-0.966-18.236c1.145-11.117,4.945-20.795,11.402-29.031
			c6.86-8.817,15.645-14.413,26.353-16.785c9.223-2.045,18.444-1.084,27.666,2.879C126.604,190.836,133.38,197.133,137.713,205.768z
			 M86.135,258.03c3.937,0.933,8.095,0.912,12.472-0.058c7.62-1.688,13.963-8.402,19.028-20.145
			c4.069-9.387,5.372-17.385,3.909-23.988c-0.242-1.094-0.555-2.132-0.935-3.113c-0.265-0.639-0.545-1.252-0.839-1.844
			c-1.787-3.623-5.28-6.066-10.48-7.334c-4.285-1.018-8.577-1.051-12.875-0.098c-10.435,2.312-17.652,8.502-21.652,18.572
			c-2.883,7.157-3.536,14.293-1.96,21.404c0.407,1.838,0.983,3.698,1.729,5.582c0.481,1.248,1.049,2.516,1.704,3.805
			C78.077,254.507,81.377,256.912,86.135,258.03z"/>
		<path fill="#CC3432" d="M163.038,196.281c1.254,0.297,2.741,0.254,4.461-0.127c1.211-0.269,2.529-0.704,3.954-1.307
			c7.317-3.057,12.618-4.949,15.9-5.676c2.579-0.572,4.129-0.555,4.653,0.046c0.522,0.601,2.1,1.708,4.731,3.317
			c2.633,1.609,4.271,3.041,4.918,4.291l0.156,0.703c0.285,1.291-0.276,2.46-1.683,3.51c-1.842,1.311-8.396,5.223-19.661,11.736
			c-10.237,5.794-15.512,8.725-15.824,8.794c-0.083,0.183-0.086,12.565-0.01,37.147c-0.953,2.178-2.621,3.533-5.004,4.061
			c-2.658,0.589-5.425,0.218-8.302-1.111c-2.878-1.331-4.845-3.088-5.903-5.273c-0.169-0.208-0.304-0.444-0.403-0.709
			c-0.108-0.305-0.193-0.593-0.254-0.867l-0.064-0.293c-1.358-8.35-2.487-21.773-3.388-40.269
			c-1.114-24.27,0.163-37.466,3.834-39.593c3.678-2.085,9.896-4.918,18.656-8.5c9.928-4.045,17.353-6.611,22.276-7.703
			c3.322-0.736,5.417-0.626,6.285,0.329c2.247,2.003,4.011,4.319,5.291,6.947c0.259,0.434,0.457,0.861,0.591,1.283
			c0.199,0.53,0.351,1.029,0.455,1.498c0.407,1.838,0.058,3.41-1.045,4.721c-1.043,1.215-7.548,3.867-19.516,7.953
			c-10.392,3.613-15.563,5.58-15.513,5.896c0.049,0.318,0.175,2.688,0.376,7.111L163.038,196.281z"/>
		<path fill="#CC3432" d="M222.948,183.006c1.253,0.299,2.74,0.254,4.46-0.127c1.211-0.268,2.529-0.703,3.955-1.307
			c7.316-3.057,12.617-4.947,15.899-5.675c2.579-0.571,4.13-0.556,4.653,0.046c0.522,0.602,2.1,1.707,4.732,3.316
			c2.632,1.61,4.271,3.043,4.917,4.293l0.156,0.703c0.286,1.289-0.276,2.459-1.683,3.508c-1.842,1.311-8.396,5.223-19.661,11.737
			c-10.237,5.794-15.513,8.725-15.824,8.794c-0.082,0.184-0.086,12.564-0.01,37.147c-0.953,2.179-2.62,3.532-5.004,4.061
			c-2.657,0.589-5.425,0.218-8.303-1.112s-4.845-3.086-5.903-5.271c-0.17-0.209-0.304-0.445-0.403-0.711
			c-0.108-0.305-0.192-0.592-0.254-0.866l-0.064-0.293c-1.358-8.349-2.487-21.772-3.388-40.269
			c-1.114-24.27,0.163-37.467,3.834-39.592c3.678-2.086,9.896-4.92,18.656-8.501c9.928-4.045,17.354-6.612,22.277-7.703
			c3.321-0.736,5.416-0.626,6.284,0.329c2.247,2.004,4.011,4.319,5.29,6.946c0.26,0.435,0.457,0.863,0.592,1.284
			c0.199,0.531,0.352,1.029,0.455,1.499c0.407,1.837,0.059,3.41-1.045,4.72c-1.043,1.215-7.549,3.867-19.516,7.953
			c-10.392,3.614-15.562,5.58-15.514,5.897c0.05,0.317,0.176,2.688,0.377,7.112L222.948,183.006z"/>
		<path fill="#CC3432" d="M304.39,196.141c0.286,0.184,0.46,0.411,0.521,0.684c0.226,1.017-1.558,1.945-5.349,2.785
			c-2.462,0.545-5.742,1.189-9.841,1.934c-1.463,0.242-4.226,0.731-8.285,1.467c1.49-2.338,1.949-6.007,1.375-11.006
			c-0.993-10.029-1.538-16.098-1.637-18.209c-0.039-1.467-0.779-10.18-2.225-26.135c0.354-2.661,3.617-4.676,9.792-6.044
			c1.485-0.329,4.618-0.9,9.398-1.712c2.762-0.489,5.08-0.942,6.956-1.358c0.898-0.199,1.695-0.395,2.391-0.59l0.353-0.078
			c3.32-0.735,5.61,0.069,6.868,2.414l0.176,0.514c0.116,0.344,0.219,0.711,0.306,1.102c1.126,5.08-1.466,14.756-7.774,29.026
			c-2.493,14.658-3.505,23.039-3.037,25.15L304.39,196.141z M292.953,207.53c5.631,0.802,9.408,3.143,11.334,7.021l0.176,0.515
			c0.125,0.382,0.236,0.788,0.331,1.218c0.216,0.977,0.288,2.129,0.214,3.459l-0.628,2.721c-1.009,2.48-2.117,4.51-3.325,6.088
			c-1.986,2.325-4.205,3.779-6.658,4.365c-1.758,0.391-3.458,0.398-5.099,0.023c-3.921-1.223-6.729-3.449-8.43-6.68
			c-0.164-0.374-0.324-0.729-0.481-1.062c-0.207-0.569-0.368-1.107-0.48-1.616c-0.425-1.913-0.238-3.761,0.557-5.534l2.361-4.889
			l0.279-0.678c1.639-2.412,3.664-3.908,6.079-4.484C290.393,207.728,291.65,207.572,292.953,207.53z"/>
	</g>
</g>
<g>
</g>
<g>
</g>
<g>
</g>
<g>
</g>
<g>
</g>
<g>
</g>
</svg>
