<?xml version="1.0" encoding="UTF-8" standalone="no"?>
<!-- Created with Inkscape (http://www.inkscape.org/) -->

<svg
   xmlns:dc="http://purl.org/dc/elements/1.1/"
   xmlns:cc="http://creativecommons.org/ns#"
   xmlns:rdf="http://www.w3.org/1999/02/22-rdf-syntax-ns#"
   xmlns:svg="http://www.w3.org/2000/svg"
   xmlns="http://www.w3.org/2000/svg"
   xmlns:sodipodi="http://sodipodi.sourceforge.net/DTD/sodipodi-0.dtd"
   xmlns:inkscape="http://www.inkscape.org/namespaces/inkscape"
   width="500mm"
   height="400mm"
   viewBox="0 0 500 400"
   version="1.1"
   id="svg4211"
   inkscape:version="0.92.4 5da689c313, 2019-01-14"
   sodipodi:docname="daroachnet_blog_logo.svg">
  <defs
     id="defs4205" />
  <sodipodi:namedview
     id="base"
     pagecolor="#ffffff"
     bordercolor="#666666"
     borderopacity="1.0"
     inkscape:pageopacity="0.50196078"
     inkscape:pageshadow="2"
     inkscape:zoom="0.35"
     inkscape:cx="732.3847"
     inkscape:cy="560"
     inkscape:document-units="mm"
     inkscape:current-layer="layer1"
     showgrid="false"
     inkscape:pagecheckerboard="true"
     inkscape:window-width="1920"
     inkscape:window-height="1056"
     inkscape:window-x="1920"
     inkscape:window-y="0"
     inkscape:window-maximized="0" />
  <metadata
     id="metadata4208">
    <rdf:RDF>
      <cc:Work
         rdf:about="">
        <dc:format>image/svg+xml</dc:format>
        <dc:type
           rdf:resource="http://purl.org/dc/dcmitype/StillImage" />
        <dc:title />
      </cc:Work>
    </rdf:RDF>
  </metadata>
  <g
     inkscape:label="Layer 1"
     inkscape:groupmode="layer"
     id="layer1"
     transform="translate(0,103)"
     style="display:inline"
     sodipodi:insensitive="true" />
  <g
     inkscape:groupmode="layer"
     id="layer17"
     inkscape:label="Layer 2"
     style="display:inline">
    <path
       style="fill:#000000;stroke-width:0.26458332"
       id="path4214"
       d="m 62.992395,87.840675 c -6.163932,12.748535 -12.705191,25.302245 -19.303968,37.829575 -3.813484,7.21781 -7.649929,14.43404 -11.091611,21.83984 -0.528106,1.13638 -2.39903,5.07103 -2.694498,6.84389 -0.03893,0.23359 0.182068,0.43722 0.2731,0.65583 0.302858,-0.37761 1.378514,-1.24884 0.908569,-1.13282 -1.626709,0.4016 -3.229724,3.01657 -4.593,2.04243 -1.19262,-0.8522 2.104784,-2.04103 3.133085,-3.08563 4.084214,-4.14893 8.070143,-8.37878 12.206356,-12.47807 1.990256,-1.80449 5.380058,-5.07861 7.790648,-6.55803 0.854795,-0.5246 8.53054,-6.88788 12.66091,-5.44652 2.320864,0.8099 2.644815,2.89583 3.5129,4.85895 2.094243,9.64064 1.908902,19.5991 4.109595,29.23566 0.462026,2.02315 1.114499,3.99804 1.671746,5.99706 0.754213,1.70536 1.319908,3.50724 2.26264,5.11607 2.518825,4.29855 6.051984,7.10665 11.243614,6.85675 4.77493,-0.22983 7.37441,-2.05424 11.69399,-4.08277 0.35033,-0.36715 0.65623,-0.78257 1.05099,-1.10148 2.798859,-2.26102 5.805269,-4.26619 8.518599,-6.62917 7.38497,-6.4314 15.63427,-14.99081 22.06588,-22.23997 3.92537,-4.42435 7.81049,-8.8944 11.42934,-13.57279 3.96863,-5.13058 7.54349,-10.55402 11.31523,-15.83103 9.27526,-14.55021 18.07122,-29.736395 23.03686,-46.390235 2.1213,-7.114461 3.73409,-15.664683 2.72033,-23.200707 -0.39608,-2.944309 -1.74304,-5.680241 -2.61456,-8.520363 -1.65133,-2.118684 -2.93599,-4.583087 -4.95399,-6.356052 -7.22983,-6.351969 -17.64442,-7.206387 -26.74797,-6.496756 -3.94912,0.307838 -7.91,0.817969 -11.74434,1.812044 -4.65091,1.205776 -9.07024,3.173345 -13.60535,4.760018 -4.69522,2.325955 -9.49942,4.443768 -14.08565,6.977865 -5.351619,2.957004 -15.820979,10.952141 -19.569079,14.176927 -5.916798,5.090703 -11.878723,11.187118 -16.015055,17.90773 -1.555239,2.526914 -2.49583,5.383967 -3.743748,8.075949 -0.234297,2.359946 -0.962438,4.722532 -0.702889,7.079832 0.508595,4.619257 3.147451,7.897701 6.980158,10.302901 8.252154,5.178607 18.412884,4.752537 27.685114,4.978117 21.427159,-1.02382 42.389119,-6.244114 62.652789,-13.056976 3.32643,-1.11838 6.60966,-2.36139 9.91448,-3.542085 0,0 -5.6059,4.370982 -5.6059,4.370982 v 0 c -3.26089,1.136494 -6.5023,2.330509 -9.78267,3.409485 -20.36434,6.698202 -41.38425,11.875914 -62.868309,12.932084 -3.76764,-0.0843 -7.5501,0.0913 -11.30292,-0.25299 -7.680089,-0.70464 -17.498514,-2.61502 -22.182703,-9.661794 -3.374213,-5.076084 -2.002904,-7.873113 -1.403146,-13.544682 1.30111,-2.770682 2.290516,-5.710433 3.903332,-8.312047 4.236016,-6.83306 10.32371,-13.044977 16.345254,-18.240094 13.409283,-11.568919 28.969102,-20.336964 45.011692,-27.676665 4.64009,-1.614559 9.16226,-3.619543 13.92028,-4.843676 3.89324,-1.001647 7.91522,-1.507337 11.92418,-1.805533 9.35057,-0.695517 20.01619,0.247923 27.35633,6.881733 2.05498,1.85724 3.3337,4.424441 5.00055,6.636662 0.84705,2.934347 2.18157,5.770124 2.54113,8.80304 0.91298,7.700994 -0.86823,16.421409 -3.10558,23.65235 -5.178,16.734908 -14.07397,32.024433 -23.3861,46.723896 -3.70524,5.26649 -7.2077,10.68167 -11.11573,15.79949 -5.88772,7.71036 -15.64885,18.62721 -22.47104,25.66668 -5.33319,5.50304 -12.0154,12.14215 -18.51214,16.5766 -4.43066,3.02422 -9.147019,5.60703 -13.720529,8.41055 -4.55358,2.03085 -7.18212,3.86199 -12.18603,3.88838 -5.274989,0.0278 -9.075588,-3.17687 -11.563293,-7.56592 -0.93816,-1.65519 -1.501841,-3.49624 -2.252763,-5.24436 -0.556834,-2.02493 -1.204426,-4.02706 -1.6705,-6.07478 -2.168816,-9.5288 -2.122988,-19.38248 -4.3522,-28.88736 -0.733809,-1.58606 -1.055116,-3.52924 -3.074461,-4.03366 -0.801637,-0.20025 -2.830994,0.90901 -2.47337,0.16414 0.60628,-1.26277 4.225825,-3.51798 3.506515,-2.316 -1.763199,2.94634 -6.796918,2.91177 -7.97366,6.5214 -4.861513,4.79534 -3.724828,3.59307 -8.387009,8.51157 -1.220742,1.28786 -2.419784,2.59619 -3.641172,3.88343 -0.982467,1.03545 -1.827765,2.22886 -2.970249,3.0845 -2.927139,2.19222 -5.978007,4.24017 -9.176748,6.01274 -0.498491,0.27624 -1.139745,0.0133 -1.709618,0.0199 -0.106498,-0.40291 -0.388824,-0.79779 -0.319495,-1.20873 0.258553,-1.53258 2.71113,-6.41532 3.059226,-7.12458 3.645678,-7.42822 7.566999,-14.71915 11.452648,-22.02289 6.433302,-12.29628 12.797973,-24.63784 18.366417,-37.356625 0,0 7.448566,-3.40324 7.448566,-3.40324 z"
       inkscape:connector-curvature="0" />
    <path
       style="fill:#000000;stroke-width:0.26458332"
       id="path4216"
       d="m 156.38453,143.70446 c 2.74108,-4.01729 5.53453,-8.0517 7.58419,-12.47674 0.1778,-2.60522 0.0547,-2.01906 6.69577,-2.99306 0.87471,-0.12829 -1.20066,1.30031 -1.74868,1.99403 -3.15946,3.99941 -5.89444,8.34184 -8.675,12.60354 -3.21134,5.0035 -6.38818,10.03127 -9.31011,15.21102 -1.41312,2.50506 -2.92836,5.03016 -3.71743,7.81142 1.62658,-2.15942 -1.19042,1.67026 -5.86212,2.54316 -0.90079,0.16832 1.26725,-1.32603 1.85331,-2.03051 2.7633,-3.32166 4.99658,-6.95265 7.22826,-10.63873 3.15044,-5.49024 6.01704,-11.15548 8.53423,-16.96513 2.46041,-1.03958 4.79669,-2.44455 7.38122,-3.11875 0.45142,-0.11775 -0.31832,0.87709 -0.47385,1.31692 -0.25584,0.72354 -0.52464,1.4428 -0.76025,2.17318 -0.90633,2.80959 -1.53073,5.62174 -2.04433,8.52464 -0.0794,2.17158 -0.55503,6.20467 2.35537,6.98881 1.37045,0.36923 2.65948,-0.28353 3.90851,-0.67669 0.87501,-0.46873 3.54472,-1.77972 2.62504,-1.40619 -1.32222,0.53701 -2.78202,2.85926 -3.83734,1.89856 -0.99327,-0.90421 2.10141,-1.67486 3.11545,-2.55572 3.18438,-2.76622 6.13076,-5.78026 9.05801,-8.81113 0.81695,-0.85438 1.64267,-1.70047 2.45086,-2.56315 0.0185,-0.0197 3.46588,-3.96984 3.73986,-4.06782 8.01503,-2.86647 8.01043,-4.20402 6.17866,-0.12187 -3.19377,6.33129 -6.32116,12.68537 -8.69759,19.37313 -0.46397,1.70506 -2.90801,9.36795 0.6105,9.78443 0.55948,0.0662 1.11675,-0.14983 1.67513,-0.22475 -0.71272,0.0367 6.90619,-2.2347 5.04757,-2.54059 -1.25325,-0.20626 -3.61006,2.81147 -3.48178,1.54785 0.16111,-1.58688 2.4576,-2.03555 3.63998,-3.10613 3.42122,-3.09771 4.49584,-4.35976 7.72202,-7.75264 5.76948,-6.44249 11.13011,-13.25203 16.01861,-20.38587 1.68316,-2.8557 0.92178,-1.90828 7.71134,-3.68275 0.56941,-0.14881 -0.79437,0.87079 -1.15012,1.33963 -2.3121,3.0471 -4.39084,6.30101 -6.49368,9.49139 -2.55796,3.95883 -5.05627,7.97161 -7.12254,12.21489 -0.85524,1.75633 -1.94511,4.19048 -2.40751,6.1609 -0.14917,0.63561 -0.14087,1.29814 -0.21131,1.94721 0.3354,0.85209 0.15846,1.29362 1.23999,0.92746 0.48149,-0.16301 1.79888,-0.94787 1.34881,-0.71156 -1.67392,0.87891 -3.17828,2.21371 -5.02037,2.63935 -0.9456,0.21849 1.48563,-1.25742 2.14029,-1.97387 0.779,-0.85252 1.43167,-1.81241 2.14751,-2.71862 4.26402,-6.08253 6.78373,-13.09693 7.8315,-20.41257 -0.012,-0.58391 0.0581,-1.17534 -0.0362,-1.75173 -0.0449,-0.2746 -0.1118,-0.6494 -0.37233,-0.74709 -0.2021,-0.0758 -0.68525,0.51465 -0.48939,0.42398 2.09034,-0.96773 3.98229,-2.4199 6.19365,-3.06479 0.59979,-0.17491 -0.7423,1.01035 -1.0373,1.56108 -0.36342,0.67847 -0.62052,1.40873 -0.93078,2.11309 -0.87754,2.84299 -2.6375,7.82464 -0.31278,10.46402 0.32855,0.37301 0.81525,0.56894 1.22288,0.85342 2.20606,0.57433 4.41066,0.13144 6.50419,-0.70559 0.97621,-0.3903 3.67,-2.02735 2.82618,-1.40022 -1.15608,0.85921 -2.33486,2.16426 -3.77403,2.10467 -1.25756,-0.0521 2.07765,-1.42126 3.11648,-2.13189 2.98121,-2.13037 5.70197,-4.58673 8.51035,-6.93133 0.71196,-0.59439 2.22929,-1.92706 3.22606,-2.42948 2.57502,-1.29794 5.19892,-2.49658 7.79837,-3.74487 0.0548,0.51281 0.2571,1.03111 0.16436,1.53844 -0.12943,0.70813 -1.86904,4.14601 -2.03949,4.4896 -1.4751,2.9737 -3.02522,5.90693 -4.57522,8.84196 -1.06055,2.12631 -2.16794,4.26419 -2.95744,6.51327 -0.11667,0.33236 -0.20202,0.67591 -0.27194,1.02114 -0.0162,0.08 0.0892,0.20916 0.0156,0.24449 -2.34164,1.12364 -4.74681,2.10977 -7.12021,3.16466 0.25981,-0.27231 0.55068,-0.51806 0.77945,-0.81693 0.77253,-1.0093 1.61515,-2.56662 2.17047,-3.64229 1.5148,-2.93421 2.80146,-5.96818 4.0765,-9.01117 1.00623,-2.79791 2.13909,-5.59025 2.72809,-8.51845 0.23789,-1.18263 0.30543,-2.27362 -0.0472,-2.31597 -0.26886,-0.0323 -0.37655,0.38926 -0.56483,0.58389 1.87957,-0.94616 3.58517,-2.37909 5.63868,-2.83846 0.8889,-0.19885 -1.28629,1.29346 -1.86745,1.99482 -0.73996,0.89304 -1.41885,1.83578 -2.09019,2.78149 -2.36677,3.33403 -4.31182,6.83706 -6.21456,10.44752 -1.33028,2.83028 -2.66923,5.72697 -3.29338,8.81511 -0.008,0.0394 -0.41602,2.04083 0.0555,2.42288 0.14051,0.11384 0.33657,-0.13239 0.50485,-0.19859 -2.04895,1.04761 -4.00051,2.31283 -6.14686,3.14282 -0.60379,0.23348 0.9915,-0.83843 1.42681,-1.31758 0.57028,-0.62772 1.08289,-1.307 1.58114,-1.9933 1.87392,-2.58118 3.27152,-5.36367 4.66614,-8.21954 0.39534,-0.91253 0.812,-1.81612 1.18601,-2.73759 0.29483,-0.72637 0.56143,-1.46413 0.81983,-2.20424 0.16123,-0.46179 0.30114,-0.9309 0.43865,-1.40031 0.0378,-0.12903 -0.0352,-0.33769 0.087,-0.39388 7.90189,-3.63488 8.02484,-5.49402 6.9554,-1.63695 -0.64982,3.50348 -1.98426,7.90627 -0.67352,11.4067 0.20534,0.54837 0.60621,1.00198 0.90932,1.50297 1.98445,1.24406 3.36177,0.97534 5.5178,0.0737 0.92297,-0.386 3.57368,-1.7977 2.66002,-1.39007 -1.30445,0.58197 -2.88859,2.98456 -3.83403,1.91385 -0.91421,-1.03534 2.13665,-1.75086 3.20495,-2.62629 5.87113,-5.28196 10.6897,-11.55621 15.95874,-17.40361 2.30696,-2.13275 2.38599,-2.3401 8.00434,-3.26907 0.58907,-0.0974 -0.46712,1.09962 -0.73052,1.63544 -0.3743,0.76142 -0.78734,1.50318 -1.18163,2.25445 -1.97659,3.76627 -0.89696,1.67102 -2.87247,5.56807 -1.14186,2.42263 -2.25592,4.886 -2.85949,7.50859 -0.0616,0.26768 -0.44235,1.90765 -0.14568,2.42854 0.0671,0.11778 0.27004,0.024 0.40506,0.036 2.78611,-2.15873 -1.58105,1.28881 -5.18356,2.57167 -0.64122,0.22833 0.95281,-0.97548 1.37686,-1.50789 1.80084,-2.26111 3.10584,-4.82392 4.42563,-7.37738 1.18587,-2.7244 2.37792,-5.49613 2.79705,-8.46467 0.12057,-0.8539 0.33477,-2.56921 -0.3596,-3.41128 -0.2245,-0.27224 -0.64762,-0.28045 -0.97142,-0.42067 -0.51424,0.15874 -1.05566,0.24721 -1.54267,0.47622 -0.72737,0.34203 -2.84197,1.471 -2.07656,1.22566 1.46248,-0.46877 2.95952,-2.81676 4.19518,-1.90475 1.08971,0.80429 -1.95263,1.88223 -2.84345,2.90243 -2.71854,3.11337 -3.21477,4.18818 -5.45537,7.69941 -2.21178,3.99302 -4.23634,8.16775 -4.94932,12.72656 -0.30721,1.96438 -0.66386,4.35647 0.82952,6.04923 0.53253,0.60363 1.41926,0.75993 2.12889,1.13989 5.61354,-0.4432 0.46623,0.26196 6.99781,-1.80649 0.69313,-0.21951 -2.5005,1.43335 -1.97014,0.93602 1.62915,-1.52765 3.61159,-2.6346 5.31805,-4.07536 5.09894,-4.30503 6.99185,-6.59369 11.68169,-11.53754 13.34553,-15.17451 24.10265,-32.36298 34.43232,-49.663589 2.76429,-4.810551 4.47112,-7.607808 6.88658,-12.372359 0.55009,-1.085088 1.08696,-2.179881 1.539,-3.309339 1.16186,-2.902882 -2.31182,-4.230402 6.76905,-3.655301 1.18157,0.07483 -1.52644,1.81029 -2.28963,2.715435 -9.90965,13.530685 -18.1987,28.136613 -26.07082,42.916053 -3.14735,6.58468 -6.77162,13.10644 -8.26498,20.3332 -0.40904,1.97951 -0.84169,5.45323 0.0376,7.56527 0.27035,0.64933 0.94673,1.04046 1.42013,1.5607 -0.33819,2.09216 5.98545,-1.7912 4.77456,-0.73007 -1.01251,0.8873 -3.64887,3.1605 -3.60812,1.81483 0.0482,-1.59307 2.49645,-1.98923 3.6468,-3.09236 3.17773,-3.0473 4.58074,-5.04208 7.34269,-8.49523 2.77726,-3.81395 5.57663,-7.68871 7.65096,-11.94809 0.3134,-0.64353 0.60145,-1.30765 0.77899,-2.00106 0.0362,-0.14121 -0.29229,-0.33926 -0.16267,-0.40594 2.02332,-1.04075 4.17116,-1.81914 6.25674,-2.7287 -0.65575,0.635 -1.37007,1.2146 -1.96718,1.90499 -3.68575,4.26137 -6.95632,10.0362 -8.59785,15.42206 -0.41346,1.35657 -0.59613,2.77302 -0.89418,4.15952 -0.14997,3.62736 0.1534,6.78548 3.6168,8.82483 2.82159,1.66145 4.90045,1.41812 8.1149,1.68369 0,0 -6.32886,4.50807 -6.32886,4.50807 v 0 c -3.45919,-0.36361 -5.54897,-0.13189 -8.53504,-2.03015 -3.72951,-2.37089 -4.00904,-5.58319 -3.90427,-9.5823 0.29189,-1.43016 0.46488,-2.88983 0.87567,-4.29047 1.9087,-6.50764 5.67933,-12.51063 10.01371,-17.65148 2.85739,-1.38998 5.58435,-3.08845 8.57218,-4.16995 0.31589,-0.11434 0.3202,0.64655 0.25268,0.97564 -0.1569,0.76483 -0.54478,1.46687 -0.89675,2.16379 -2.17358,4.30403 -5.0178,8.24834 -7.81331,12.15607 -2.69269,3.44805 -4.11792,5.49012 -7.18015,8.58044 -1.10723,1.11738 -2.19583,2.28696 -3.50264,3.1626 -3.22744,2.1626 -6.58082,4.15165 -10.04313,5.91394 -0.90649,0.46139 -1.95091,0.70901 -2.96807,0.70865 -0.83262,-2.7e-4 -1.59644,-0.47372 -2.39469,-0.71058 -0.51316,-0.66398 -1.24389,-1.20656 -1.5395,-1.99194 -0.85749,-2.27804 -0.36034,-5.87965 0.10739,-8.01492 1.6061,-7.33211 5.31154,-13.93489 8.5349,-20.62796 7.81937,-14.62891 15.99666,-29.083748 25.40117,-42.766553 0.66587,-0.918847 1.05103,-2.130721 1.9976,-2.75654 2.61041,-1.725848 5.46084,-3.141168 8.42783,-4.136104 0.48376,-0.162224 -0.24268,0.997341 -0.45347,1.462003 -0.53489,1.179044 -1.15975,2.315646 -1.7766,3.453939 -2.65189,4.893506 -4.28958,7.560572 -7.22871,12.557715 -10.40558,17.25007 -21.09356,34.46986 -34.28288,49.76779 -4.63891,4.99787 -6.39514,7.17348 -11.42098,11.55464 -1.65753,1.44494 -3.31846,2.90864 -5.16101,4.10875 -2.36879,1.54285 -10.68486,7.21722 -15.57491,8.08537 -1.09855,0.19503 -2.23055,-0.0645 -3.34582,-0.0968 -0.78925,-0.52925 -1.77683,-0.84355 -2.36775,-1.58774 -1.54665,-1.94783 -1.25717,-4.31198 -0.918,-6.56006 0.69971,-4.63775 2.7142,-8.89855 4.90886,-12.98812 2.22126,-3.60724 2.63991,-4.57494 5.30942,-7.80552 0.85657,-1.0366 1.64801,-2.17015 2.72662,-2.97318 2.99802,-2.23201 6.23231,-4.13109 9.42533,-6.07393 2.16302,-1.31613 2.00342,-1.05851 4.21669,-1.10686 0.41224,0.30753 0.94207,0.50104 1.23671,0.92258 0.75711,1.08317 0.59164,2.68505 0.43561,3.85778 -0.4041,3.03679 -1.58803,5.86914 -2.75246,8.67461 -2.91531,5.88483 -6.90287,14.0022 -14.78849,14.04821 -0.24683,-0.22748 -0.59158,-0.38161 -0.74043,-0.68245 -0.34692,-0.70105 0,-2.21548 0.13105,-2.7839 0.61444,-2.68563 1.75106,-5.20265 2.89525,-7.69468 3.10833,-6.23148 -0.2095,0.39707 2.79551,-5.53998 0.37013,-0.7313 0.72636,-1.46965 1.10046,-2.19893 0.23415,-0.45648 0.29051,-1.08401 0.72419,-1.35809 2.41136,-1.52399 5.06904,-2.61796 7.61201,-3.91044 0.26334,-0.13384 -0.51502,0.28949 -0.77253,0.43423 -5.53488,5.71523 -10.27444,12.16368 -16.13104,17.57851 -5.53588,4.75197 -3.24758,3.07827 -12.86092,8.61786 -2.0918,1.20538 -4.95501,2.41165 -7.40896,1.47996 -0.58979,-0.22393 -1.03714,-0.71854 -1.55571,-1.07781 -0.33599,-0.58338 -0.77305,-1.11923 -1.00796,-1.75013 -1.38377,-3.71639 -0.0902,-7.95177 0.42856,-11.69088 0.89083,-4.08037 -0.0262,-1.51464 7.88518,-5.38461 0.14314,-0.07 -0.15031,0.28194 -0.20693,0.43087 -0.83108,2.18557 -1.53017,4.42562 -2.58765,6.52151 -1.36879,2.87946 -2.73869,5.67742 -4.52321,8.3284 -0.2392,0.35533 -2.15395,3.13655 -2.76219,3.51665 -2.65382,1.65842 -5.49385,2.99836 -8.24077,4.49754 -0.31241,-0.18586 -0.72092,-0.26542 -0.93722,-0.55758 -0.51841,-0.70024 -0.21651,-2.27378 -0.089,-2.88953 0.65512,-3.16338 2.03237,-6.13366 3.37796,-9.04481 1.88682,-3.62174 3.81341,-7.13914 6.10491,-10.52535 0.24919,-0.36823 3.02223,-4.42622 3.69825,-4.90257 2.69257,-1.89727 5.64686,-3.39278 8.47031,-5.08917 0.3905,0.12201 0.87352,0.0857 1.1715,0.36604 0.62579,0.58876 0.19529,2.34969 0.0974,2.81659 -0.62365,2.97531 -1.79755,5.80791 -2.78878,8.66821 -1.92194,4.69606 -3.85279,9.42677 -6.51787,13.76087 -2.63106,1.23146 -5.19041,2.6295 -7.89318,3.69439 -0.17349,0.0684 -0.10063,-0.36909 -0.0771,-0.55407 0.0502,-0.39507 0.1604,-0.78289 0.29455,-1.15786 0.82161,-2.29647 2.03019,-4.46191 3.0818,-6.65222 1.5523,-2.91049 3.09688,-5.81956 4.53483,-8.78891 0.67101,-1.38564 1.17214,-2.85877 1.95412,-4.18496 0.10385,-0.17611 0.30897,-0.26783 0.46346,-0.40175 2.17734,-1.30925 4.37156,-2.59086 6.53204,-3.92776 0.45093,-0.27904 -0.96406,0.45306 -1.40142,0.75295 -2.6924,1.84616 -5.05434,4.2237 -7.58011,6.28003 -0.99102,0.80684 -2.01102,1.57743 -3.01653,2.36615 -5.47083,3.87924 -4.04679,3.01073 -12.89186,7.8625 -2.34188,1.28458 -5.29013,2.3869 -8.02652,2.06847 -0.67592,-0.0787 -1.30559,-0.38426 -1.95839,-0.57638 -0.46459,-0.38516 -1.01596,-0.68491 -1.39379,-1.15548 -2.41031,-3.00198 -0.87183,-7.88747 0.0493,-11.12611 0.11718,-0.30774 1.25237,-3.55056 1.73403,-3.90967 2.50906,-1.87064 5.20136,-3.51247 7.9967,-4.91987 0.86499,-0.43551 1.3792,1.15985 1.4279,1.48535 0.0943,0.63039 0.002,1.27481 0.003,1.91221 -1.15884,7.39088 -3.56393,14.55142 -7.74433,20.8103 -4.32143,5.93754 -4.86383,5.85787 -12.95111,10.17768 -0.89454,0.47782 -2.19488,0.57257 -2.94353,-0.28281 -0.31156,-0.35598 -0.3123,-0.89309 -0.46846,-1.33964 0.077,-0.71418 0.0668,-1.44322 0.23097,-2.14253 0.46945,-1.99989 1.64447,-4.57875 2.51125,-6.35314 2.07908,-4.2561 4.5651,-8.29468 7.10455,-12.28661 4.59281,-7.1766 0.36631,-0.6487 4.59894,-6.99292 0.53355,-0.79973 1.05111,-1.61003 1.57462,-2.41636 0.31357,-0.48297 0.43358,-1.17133 0.93663,-1.45153 2.51312,-1.3998 5.19282,-2.50147 7.90115,-3.47108 0.31659,-0.11334 -0.37089,0.56104 -0.55633,0.84156 -5.13676,7.11896 -10.50822,14.07743 -16.34007,20.64453 -3.28384,3.51745 -4.13646,4.55744 -7.59675,7.78416 -1.15245,1.07466 -2.2484,2.23012 -3.53925,3.13385 -3.22839,2.26021 -6.62344,4.27379 -9.98337,6.33338 -2.86965,1.75905 -2.53157,1.47495 -5.42386,2.33232 -0.65901,-0.0463 -1.3508,0.0714 -1.97704,-0.13898 -3.89794,-1.30966 -1.57513,-8.33399 -0.91671,-10.85514 2.33291,-6.66999 5.41763,-13.01224 8.51564,-19.35596 1.99517,-4.61397 0.35944,-1.88832 8.75246,-6.35499 0.28292,-0.15057 -0.50486,0.39689 -0.73433,0.62063 -2.01286,1.96259 -3.75259,4.19243 -5.81234,6.11053 -2.92328,3.04634 -5.87314,6.06371 -9.01802,8.88527 -0.99369,0.89153 -1.9331,1.8616 -3.0416,2.60556 -7.51453,5.04336 -7.13044,4.73855 -12.5249,7.28787 -1.70477,0.35307 -2.6991,0.86834 -4.37218,0.15342 -3.04508,-1.30119 -2.78173,-5.19044 -2.67758,-7.85647 0.50152,-2.91308 1.09663,-5.75787 1.92459,-8.59832 0.20789,-0.71323 0.44754,-1.41684 0.66575,-2.12698 0.12842,-0.41797 0.005,-1.02312 0.37412,-1.25728 2.38979,-1.51545 5.06246,-2.53025 7.59368,-3.79538 -3.2319,5.58939 -5.47165,11.72598 -8.92802,17.201 -2.16896,3.68671 -4.37149,7.25399 -6.95856,10.66491 -0.54209,0.71473 -0.92657,1.60736 -1.66863,2.11138 -2.65907,1.80606 -5.46155,3.435 -8.40364,4.72983 -0.30074,0.13236 -0.42672,-0.49977 -0.64009,-0.74966 0.90724,-2.92443 2.52347,-5.52724 4.04819,-8.17179 2.98158,-5.17141 6.15582,-10.22575 9.35231,-15.26609 3.15636,-4.95674 2.91729,-4.66362 6.04818,-9.28447 0.73641,-1.08686 1.47376,-2.17336 2.23534,-3.24274 0.49479,-0.69476 0.81139,-1.59412 1.5331,-2.04871 2.6067,-1.64195 5.42715,-2.93909 8.26997,-4.12621 0.20405,-0.0852 0.0157,0.44199 0.0235,0.66299 -2.129,4.39885 -4.86004,8.46135 -7.47671,12.57913 0,0 -7.50877,3.26503 -7.50877,3.26503 z"
       inkscape:connector-curvature="0" />
    <path
       style="fill:#000000;stroke-width:0.26458332"
       id="path4230"
       d="m 231.73877,250.1706 c 7.14994,-5.46566 13.99809,-11.30914 20.98609,-16.97649 1.87203,-1.40707 3.79194,-2.98386 5.86926,-4.11805 2.83259,-1.54657 5.54241,-3.40817 8.59358,-4.45972 1.08189,-0.37285 1.19846,1.91577 0.64903,3.68656 -0.41123,1.32536 -1.10877,2.54428 -1.66316,3.81642 -7.96867,15.35355 -16.95744,30.15632 -25.53559,45.17407 -7.04563,11.63011 -12.65078,24.28618 -21.08521,35.02776 -3.07825,2.56437 -4.55442,4.03747 -9.79237,5.05392 -0.68998,0.13388 -0.66409,-1.27511 -0.74228,-1.97358 -0.42914,-3.83318 1.76095,-9.9473 2.78835,-13.45031 5.15211,-15.64632 11.99504,-30.7181 20.12452,-45.04037 1.99208,-3.50959 4.13924,-6.92887 6.20887,-10.3933 8.11436,-12.78831 17.40971,-24.90539 28.57437,-35.19514 6.29585,-5.80247 7.83579,-6.61144 14.60301,-11.47485 8.197,-4.77112 16.2841,-10.29001 25.59728,-12.62895 2.87256,-0.72143 6.53989,-1.19851 9.53107,-0.63248 1.18441,0.22413 2.25784,0.84522 3.38676,1.26783 0.74417,0.74571 1.70516,1.32511 2.2325,2.23713 1.26572,2.18903 1.10019,4.93449 0.41,7.24341 -1.79902,6.01834 -6.3099,10.7057 -10.30668,15.29719 -11.38851,11.66664 -24.78116,21.07335 -37.84566,30.72988 -2.14621,1.66305 -5.06799,3.78837 -7.07129,5.77472 -0.51529,0.51093 -1.05276,1.03712 -1.37642,1.6866 -0.12743,0.2557 -0.10616,0.66581 0.11251,0.84967 0.44556,0.37462 4.19826,0.89452 4.2494,0.90316 7.83418,0.98522 15.97114,1.76696 23.20821,5.19555 1.46233,0.69278 2.80812,1.60869 4.21219,2.41304 1.15164,0.95787 2.42609,1.7849 3.45494,2.87361 2.87153,3.03864 4.36372,6.99725 3.80469,11.18492 -0.53963,4.0423 -1.72783,5.18377 -3.80479,8.69579 -1.27233,1.46008 -2.43326,3.02525 -3.81697,4.38021 -3.2142,3.1474 -7.36387,6.15632 -11.21063,8.42729 -4.45021,2.62721 -8.95946,5.16142 -13.55828,7.51888 -5.14093,2.63533 -11.15288,4.71239 -16.5332,6.73457 -8.38654,2.80466 -16.94837,5.31098 -25.71391,6.63168 -4.09908,0.61759 -9.40882,1.07566 -13.61561,0.58578 -1.65905,-0.19319 -3.25239,-0.76229 -4.87858,-1.14342 -1.09111,-0.69524 -2.3757,-1.15401 -3.27333,-2.08576 -1.66902,-1.73249 -2.04266,-4.12771 -1.38658,-6.37527 0.96626,-3.31018 3.10429,-5.02875 5.34519,-7.50427 0,0 7.13858,-2.98765 7.13858,-2.98765 v 0 c -2.12944,2.23076 -4.29662,3.95904 -5.38271,6.94423 -0.70926,1.94947 -0.57251,4.08022 0.91736,5.65944 0.81993,0.8691 2.00923,1.29362 3.01385,1.94045 1.55599,0.36634 3.08021,0.91366 4.66796,1.09897 4.14107,0.48337 9.27946,0.0419 13.31724,-0.56853 8.72155,-1.31858 17.23114,-3.83842 25.56194,-6.67025 17.29845,-6.61991 0.0854,0.15636 16.56546,-6.87967 0.26981,-0.11518 0.60993,-0.0296 0.86137,-0.18071 5.596,-3.36376 10.8547,-7.21477 14.90853,-12.39618 2.05897,-3.29494 3.26103,-4.42749 3.88302,-8.25704 0.6415,-3.94962 -0.71448,-7.72917 -3.42736,-10.61479 -0.99316,-1.0564 -2.22981,-1.85404 -3.34472,-2.78106 -1.37451,-0.77661 -2.69226,-1.66363 -4.12354,-2.32985 -7.28517,-3.39109 -15.45282,-4.03281 -23.31735,-4.94051 -1.28799,-0.23824 -3.88514,-0.36729 -4.94328,-1.63713 -1.11447,-1.33742 0.41592,-2.62615 1.19716,-3.4095 1.96325,-1.96855 5.28082,-4.36716 7.35801,-5.96039 13.11024,-9.59481 26.53122,-18.96232 37.95346,-30.59687 3.89777,-4.44104 8.25303,-8.95779 10.14246,-14.73542 0.65309,-1.99704 0.95957,-4.58856 -0.14788,-6.54912 -0.46083,-0.81582 -1.3312,-1.31894 -1.9968,-1.97841 -1.05725,-0.37334 -2.06636,-0.93219 -3.17175,-1.12003 -2.90409,-0.4935 -6.41723,0.005 -9.19286,0.72656 -1.95961,0.5096 -3.77528,1.52184 -5.7567,1.93866 -0.2333,0.0491 0.13428,-0.81279 -0.0811,-0.71059 -2.43049,1.15322 -4.65047,2.70593 -6.9757,4.05889 -6.86413,4.83863 -8.4373,5.64592 -14.82418,11.44096 -11.26446,10.22063 -20.65124,22.30428 -28.805,35.09965 -2.05948,3.44828 -4.19832,6.85038 -6.17843,10.34484 -8.02267,14.1582 -14.72465,29.08933 -19.596,44.62354 -1.09053,3.94407 -1.8492,6.08071 -2.38708,9.96979 -0.12945,0.93597 -0.20603,1.88521 -0.17137,2.82943 0.0148,0.40447 0.61793,0.89974 0.31822,1.17174 -1.78287,1.6179 -4.00913,2.66676 -6.01511,3.99801 -0.61691,0.40941 1.23193,-0.82164 1.84789,-1.23246 0.78748,-0.9248 1.63232,-1.80369 2.36244,-2.77439 1.78923,-2.37884 4.89837,-7.31062 6.32385,-9.64835 4.56679,-7.4893 8.7561,-15.19957 13.14413,-22.79269 8.46695,-14.84207 17.31025,-29.50375 24.92446,-44.80867 0.51671,-1.18838 1.08701,-2.35487 1.55013,-3.56515 0.22668,-0.59237 0.46217,-1.1997 0.51504,-1.83176 0.0146,-0.17439 -0.46599,-0.30339 -0.32748,-0.41036 1.64549,-1.27079 3.53456,-2.19399 5.23982,-3.38337 2.01086,-1.40255 -9.79674,6.00541 -6.10377,4.10367 -6.91841,5.55535 -13.65958,11.32839 -20.60953,16.84564 0,0 -7.56395,3.01875 -7.56395,3.01875 z"
       inkscape:connector-curvature="0" />
    <path
       style="fill:#000000;stroke-width:0.26458332"
       id="path4232"
       d="m 293.49456,286.02553 c 8.27645,-7.40836 15.70527,-15.69617 23.00172,-24.0515 10.36345,-12.34229 19.33812,-25.76882 27.25295,-39.78826 1.13458,-2.22995 2.7468,-5.16782 3.63315,-7.62066 0.20349,-0.56313 0.37822,-1.15128 0.40833,-1.7493 0.006,-0.11033 -0.21005,-0.0686 -0.31506,-0.10284 1.96889,-0.85786 3.75959,-2.5248 5.90674,-2.57357 1.14139,-0.0259 -1.56594,1.66183 -2.34892,2.49275 -9.88576,12.3959 -17.35353,26.45842 -24.37268,40.60685 -3.42297,7.466 -6.84794,14.97348 -9.25785,22.84404 -1.01524,3.31571 -1.97504,6.96294 -2.05871,10.47877 -0.0272,1.14255 0.23613,2.27354 0.3542,3.41032 0.39154,0.71472 0.58801,1.57845 1.17464,2.14416 2.60783,2.51473 9.77407,-1.05886 11.86105,-2.67629 0.65721,-0.50935 -1.55111,0.59963 -2.32666,0.89945 9.98709,-7.5701 18.11213,-17.18273 26.07979,-26.76713 0.99153,-1.18551 1.98358,-2.3706 2.97461,-3.55654 0.0863,-0.10332 3.42894,-4.42621 4.08715,-4.6811 8.18171,-3.16847 8.53815,-4.50724 6.01445,-0.68838 -5.29195,7.48659 -10.09734,15.2938 -14.22191,23.48046 -0.63428,1.44293 -4.51712,10.50536 -0.77099,11.01847 0.51019,0.0699 1.02177,-0.12922 1.53262,-0.19383 0.6631,-0.31631 2.63065,-1.30728 1.9893,-0.94896 -1.46021,0.81584 -2.7754,2.31177 -4.44802,2.3227 -1.16596,0.008 1.80729,-1.48061 2.62605,-2.31077 2.95999,-3.00124 5.01914,-6.50446 7.08051,-10.13912 1.99266,-4.50017 5.05383,-11.30218 4.14433,-16.38035 -0.0827,-0.46204 -0.33504,-0.87696 -0.50255,-1.31544 -0.2467,-0.11881 -0.46831,-0.38978 -0.74007,-0.35644 -0.34417,0.0422 -1.19173,0.70632 -0.87966,0.5552 1.99771,-0.96736 3.82241,-2.34606 5.94151,-3.00633 0.56526,-0.17611 -0.71855,0.94684 -1.00118,1.46706 -0.9017,1.65963 -0.84738,2.0641 -1.24185,3.90756 -0.10229,2.68414 0.59031,5.42168 3.36931,6.4712 1.73403,0.65487 3.0095,0.45083 4.84177,0.4317 3.07761,-0.63744 3.4767,-0.567 6.49824,-1.87177 1.25881,-0.54356 2.37718,-1.41491 3.68406,-1.82967 1.05474,-0.33473 -3.64119,2.4221 -2.91631,1.58601 1.01782,-1.17393 2.58738,-1.72331 3.83651,-2.64734 1.24801,-0.92321 2.4339,-1.92759 3.65082,-2.89139 3.07253,-2.5727 6.00306,-5.30573 8.97181,-7.99499 0.63476,-0.575 1.27281,-1.14645 1.91709,-1.71074 0.35534,-0.31121 0.67385,-0.67705 1.08154,-0.91557 2.43271,-1.42323 4.94559,-2.7048 7.41836,-4.0572 -0.0177,0.57752 0.13899,1.1877 -0.0533,1.73256 -0.25292,0.71668 -0.80804,1.28781 -1.23455,1.91683 -0.65299,0.96305 -1.33329,1.90732 -2.00343,2.85854 -2.77674,3.9415 -5.50756,7.90429 -8.19226,11.9094 -3.64067,6.18611 -8.42955,12.24094 -9.88989,19.4269 0.0648,0.24831 -0.0292,0.61872 0.19428,0.74496 0.14238,0.0804 2.34514,-1.36589 1.78914,-1.11356 -1.74799,0.79328 -3.24217,2.26267 -5.1282,2.61999 -0.96647,0.18309 1.45348,-1.32914 2.12227,-2.0505 0.76735,-0.82769 1.4536,-1.72704 2.18041,-2.59056 3.53451,-4.98779 6.67946,-10.52798 7.90236,-16.59051 0.1723,-0.85405 0.21545,-1.72913 0.32319,-2.59368 -0.0865,-0.68403 0.0743,-2.2566 -0.98944,-2.59041 -1.01285,-0.31783 -3.93851,1.58197 -2.97495,1.13652 5.20129,-2.40445 6.02732,-3.66662 1.88328,0.24201 -4.33453,4.9575 -8.02431,10.81985 -9.25584,17.39527 -0.17671,0.94353 -0.17706,1.91172 -0.26561,2.86758 0.17073,1.64714 0.44577,3.81384 2.43734,4.26453 1.67629,0.37936 3.69009,-0.99803 3.33057,-0.78457 -1.57861,0.93724 -3.24778,1.71284 -4.87169,2.56924 4.5965,-3.86099 7.25808,-9.30018 9.31529,-14.8246 1.11517,-3.60548 -0.0917,-3.16786 7.50065,-4.51213 0.65725,-0.11636 -0.61172,1.1874 -0.88308,1.79724 -0.58544,1.31574 -2.6803,6.52086 -3.02188,7.36279 -7.07911,17.46811 -15.48048,34.33721 -24.26523,50.99749 -4.83465,8.72302 -9.9192,17.36243 -16.19641,25.14542 -2.29024,2.83961 -6.24425,7.33602 -9.46542,9.44779 -3.45451,2.26478 -7.17971,4.08694 -10.76957,6.1304 -1.26545,0.19237 -2.51887,0.65733 -3.79635,0.57718 -4.05322,-0.25429 -6.23656,-3.86775 -6.97525,-7.45759 -0.85089,-4.13518 -0.20493,-6.17162 0.33769,-10.36498 2.15547,-8.86782 6.90192,-16.66134 13.20687,-23.20951 4.47424,-4.64685 6.73015,-6.03983 11.89014,-9.96326 2.34815,-1.5359 4.66124,-3.12674 7.04442,-4.60769 8.37624,-5.20509 17.14283,-9.75878 25.58373,-14.85447 10.62818,-6.41615 7.81672,-4.70998 18.1452,-11.43506 11.8998,-8.14366 23.32377,-17.18593 32.76786,-28.1519 1.24893,-1.45021 2.38725,-2.99214 3.58087,-4.48821 1.49942,-2.22581 3.0808,-4.1804 3.95785,-6.74048 0.25209,-0.73588 0.254,-1.53486 0.381,-2.30229 0,0 7.21164,-3.53439 7.21164,-3.53439 v 0 c -0.12695,0.853 -0.10986,1.74028 -0.38087,2.55898 -0.87228,2.63515 -2.60432,4.76036 -4.14028,7.01501 -1.2264,1.52873 -2.39712,3.10383 -3.67919,4.58619 -9.56704,11.06182 -21.08073,20.23431 -33.0981,28.48206 -7.95367,5.19623 -9.9327,6.61361 -18.13936,11.47207 -10.79781,6.39247 -21.91216,12.2941 -32.35894,19.26341 -5.11746,3.83244 -7.41929,5.24391 -11.87415,9.7853 -6.26539,6.38704 -11.04176,14.00246 -13.20793,22.72583 -0.23716,1.778 -0.64802,3.54139 -0.71147,5.334 -0.12188,3.44323 0.46293,8.38033 3.83896,10.384 2.3627,1.40226 3.9937,0.54655 6.46223,0.0589 -0.7784,0.52925 -3.01733,2.23637 -2.33521,1.58771 1.48399,-1.41118 3.27697,-2.47261 4.75562,-3.88937 6.36016,-6.09399 11.43585,-13.62557 16.02211,-21.08179 1.9423,-3.15775 3.7257,-6.41051 5.58853,-9.61575 1.81999,-3.43749 3.6917,-6.84811 5.45997,-10.31248 6.69398,-13.11497 12.66615,-26.58986 18.10027,-40.27162 0.91268,-2.42036 1.81031,-4.8464 2.72923,-7.2644 0.2321,-0.61066 0.17783,-1.45055 0.71268,-1.82565 2.41933,-1.69672 5.14549,-2.92087 7.8267,-4.16314 0.60735,-0.28141 -1.72495,3.92684 -0.50787,1.94289 -2.14654,5.58019 -4.70286,11.13345 -9.13537,15.2908 -0.23757,0.14036 -7.65342,5.62229 -10.99932,5.82223 -3.38457,0.2023 -4.23613,-2.673 -4.51172,-5.39012 0.0887,-1.00589 0.0854,-2.02414 0.26593,-3.01762 1.20999,-6.65864 4.84828,-12.64743 9.09198,-17.78646 4.67707,-4.74861 2.6566,-3.10102 11.75052,-8.26956 1.06082,-0.60292 2.4816,-1.06039 3.64037,-0.32421 1.21775,0.77365 1.02571,2.03344 1.16904,3.24504 -0.11335,0.90664 -0.16193,1.82374 -0.34002,2.71991 -1.21965,6.13699 -4.32048,11.76835 -7.77253,16.90487 -4.54933,5.71388 -4.91839,5.61853 -12.83052,10.20405 -1.5717,0.91088 -2.67044,0.64667 -2.91399,-1.17525 1.50932,-7.34857 6.40887,-13.5222 10.11534,-19.86762 2.63554,-3.96994 5.30741,-7.90947 8.00161,-11.83952 0.63262,-0.92282 1.26688,-1.84465 1.88502,-2.77724 0.39156,-0.59076 0.62677,-1.30758 1.1438,-1.79237 0.22254,-0.20868 0.60401,-0.0865 0.90604,-0.12969 2.25231,-1.31675 4.46553,-2.70283 6.75698,-3.95025 0.44894,-0.2444 -0.82196,0.6087 -1.21626,0.93399 -3.8109,3.14384 -7.28848,6.67655 -11.09536,9.82662 -2.3677,1.91536 -4.81727,4.02296 -7.42119,5.62721 -3.44554,2.12275 -6.9509,4.14962 -10.49179,6.10915 -2.16006,1.19536 -4.88561,2.34648 -7.30078,2.96068 -1.06003,0.26956 -2.1568,0.36534 -3.23519,0.54801 -2.06648,-0.0717 -3.25414,0.1079 -5.15782,-0.75991 -2.94843,-1.34406 -3.82643,-4.3193 -3.82825,-7.31031 0.34835,-2.11198 0.22447,-2.21903 1.08445,-4.15292 1.76754,-3.97477 3.50017,-3.76568 8.97345,-6.71541 0.37816,-0.20382 0.88601,-0.1377 1.28875,0.0118 0.39103,0.14514 0.63122,0.54534 0.94684,0.81801 0.18037,0.5223 0.45072,1.02178 0.54115,1.56691 0.87297,5.2624 -2.16394,12.17906 -4.1653,16.8832 -0.69406,1.26608 -1.33544,2.56246 -2.08212,3.79822 -4.40811,7.29544 -10.41402,12.67899 -18.87127,15.24222 -0.61148,-0.0631 -1.26167,0.0338 -1.83446,-0.18931 -4.17806,-1.62747 -0.40439,-9.8163 0.55425,-12.20562 4.09987,-8.12596 8.83729,-15.89191 13.91393,-23.44506 2.71328,-4.10262 0.57484,-1.47684 9.02981,-5.58873 0.24212,-0.11775 -0.49663,0.2275 -0.69837,0.40578 -2.62763,2.32189 -4.50805,5.38836 -6.95717,7.87328 -8.01915,9.55412 -16.09203,19.20911 -25.95582,26.94354 -3.6433,2.26788 -7.23784,4.61598 -10.92987,6.80361 -3.01378,1.78572 -9.56429,5.29481 -12.74164,1.77061 -0.61495,-0.68207 -0.81843,-1.6443 -1.22764,-2.46644 -0.10097,-1.20904 -0.35066,-2.41477 -0.30293,-3.6271 0.14305,-3.63336 1.16963,-7.32713 2.25348,-10.75179 2.5081,-7.9249 5.99739,-15.48654 9.44762,-23.03077 6.91299,-14.0319 14.23421,-27.95487 23.64496,-40.50714 3.68885,-4.46792 2.69248,-3.91299 10.79251,-7.26691 0.3215,-0.13312 0.56269,0.52746 0.56872,0.87538 0.0117,0.67428 -0.27604,1.32644 -0.51966,1.95528 -0.90575,2.33773 -2.82189,5.77259 -3.90552,7.82759 -8.07516,14.01609 -17.05276,27.52745 -27.37717,40.00204 -7.08576,8.22368 -14.32097,16.33125 -22.17693,23.8347 0,0 -7.61741,3.08695 -7.61741,3.08695 z"
       inkscape:connector-curvature="0" />
    <path
       style="fill:#000000;stroke-width:0.26458332"
       id="path4238"
       d="m 344.21723,149.7502 c -1.97096,3.63236 -4.01122,7.261 -5.32604,11.19218 -0.67731,3.14471 0.67001,1.19734 -7.053,4.05168 -0.43952,0.16245 0.66157,-0.66572 0.95909,-1.02771 0.39836,-0.48466 2.76357,-3.70785 2.94278,-3.95077 4.7675,-6.90876 9.09693,-14.11329 13.49758,-21.25932 4.14052,-6.43957 5.95612,-10.66122 14.22988,-12.9517 0.54671,-0.15135 0.29003,1.09681 0.43508,1.64522 -0.081,0.7442 -0.12049,1.49409 -0.24305,2.23258 -0.59917,3.61036 -1.70616,7.13386 -2.57881,10.68125 -1.02471,4.16547 -0.94525,4.00848 -1.78224,8.20326 -0.49059,3.65245 -1.89851,10.99653 1.17195,13.99297 0.39238,0.38294 0.95107,0.54583 1.42661,0.81874 0.60018,0.0259 1.20581,0.16222 1.80059,0.0777 2.2351,-0.31773 5.66714,-2.45981 4.57999,-1.80719 -1.33797,0.80322 -2.57781,2.16189 -4.13813,2.18961 -1.17256,0.0208 1.88584,-1.39832 2.77299,-2.16536 0.98324,-0.85017 1.88791,-1.78721 2.83186,-2.68081 4.8882,-5.11755 8.90865,-11.01043 11.71869,-17.50412 0.1747,-0.53852 0.40449,-1.06221 0.52411,-1.61558 0.0591,-0.27337 0.10671,-0.57793 0.006,-0.83904 -0.037,-0.0963 -0.36417,0.19405 -0.27165,0.14836 2.11857,-1.04623 4.1424,-2.30804 6.35011,-3.1501 0.57838,-0.22061 -0.95163,0.79715 -1.37216,1.25142 -0.59486,0.64256 -1.11088,1.35385 -1.66629,2.03077 -3.11026,4.55849 -6.1309,9.56935 -7.05387,15.10719 -0.14229,0.85375 -0.13753,1.72558 -0.2063,2.58837 0.13909,0.64667 0.12856,1.34489 0.41728,1.94 1.68764,3.4787 8.27063,-0.73695 8.33027,-0.63368 0.56557,0.97943 -1.99792,1.06062 -2.99691,1.59093 8.85182,-6.16576 16.26526,-14.18655 22.81878,-22.70638 1.60343,-2.08451 3.09465,-4.25297 4.64196,-6.37945 7.87939,-11.48611 14.88254,-23.59393 20.59278,-36.302292 0.38857,-1.041416 0.82804,-2.065234 1.16573,-3.124245 0.58899,-1.847083 -0.44609,-5.471798 6.01408,-3.520691 1.28511,0.38813 -1.5518,2.192996 -2.25988,3.333525 -1.0314,1.661361 -1.97043,3.378321 -2.95564,5.067482 -6.85207,12.695171 -12.59244,26.006941 -16.92232,39.774221 -0.8286,2.63457 -1.53334,5.3065 -2.3,7.95976 -1.46452,5.91682 -2.80048,11.92725 -3.13203,18.03533 -0.0916,1.6878 -0.0738,4.53236 0.36933,6.31131 0.12248,0.49174 0.42355,0.92079 0.63532,1.38118 2.74444,0.37461 3.52742,0.33373 -5.3498,3.18082 -0.62833,0.20151 0.92303,-0.95763 1.26802,-1.52011 1.8696,-3.04826 2.52386,-6.62706 3.26398,-10.05541 1.2093,-8.99566 1.07619,-18.4028 -1.59504,-27.15543 -0.53422,-1.75042 -1.31112,-3.41736 -1.96668,-5.12603 -0.83645,-1.47991 -1.54022,-3.04311 -2.50936,-4.43972 -3.33161,-4.80105 -8.28207,-8.0373 -13.91346,-9.46288 -1.13046,-0.28618 -2.29793,-0.39831 -3.44691,-0.59746 -2.30862,-0.0981 -3.03744,-0.27104 -5.19853,0.10569 -0.46575,0.0812 -1.76316,0.64732 -1.3611,0.39866 2.18498,-1.35128 4.52887,-2.4294 6.74526,-3.72847 0.1751,-0.10262 0.20042,-0.42071 0.39968,-0.45929 0.61354,-0.11878 1.24981,0.0127 1.87471,0.019 11.56306,-0.79456 22.99044,-2.95524 34.36273,-5.10917 15.21063,-2.80389 30.21618,-6.542023 45.13292,-10.600885 1.66388,-0.490056 3.32774,-0.980112 4.99163,-1.47017 0,0 -6.1163,4.711594 -6.1163,4.711594 v 0 c -1.63351,0.460679 -3.26702,0.921361 -4.90053,1.38204 -14.8912,3.932731 -29.85341,7.600801 -44.99959,10.430431 -11.59214,2.23342 -23.24143,4.50392 -35.02814,5.38653 -0.70143,-0.0385 -1.43515,0.0984 -2.10428,-0.11554 -0.48967,-0.15654 -1.60367,-0.60693 -1.21767,-0.94646 5.39036,-4.74128 7.86022,-5.10783 13.90298,-4.53171 1.15946,0.23802 2.33998,0.38997 3.4784,0.71405 5.73315,1.63209 10.722,5.066 14.08883,10.02326 0.97607,1.43717 1.68365,3.03941 2.52547,4.55912 0.66289,1.74371 1.44436,3.44684 1.98864,5.23114 2.69049,8.82057 2.93991,18.27537 1.90537,27.36948 -0.26162,1.40157 -0.45294,2.81812 -0.78486,4.20473 -0.40622,1.69702 -1.31731,4.39694 -2.10693,6.04133 -0.30142,0.62775 -0.48057,1.41519 -1.06133,1.79944 -2.61961,1.73321 -5.40956,3.24689 -8.32659,4.4119 -0.38108,0.15219 -0.68612,-0.45025 -1.02915,-0.67538 -0.21228,-0.54561 -0.51597,-1.06398 -0.63683,-1.63681 -0.39071,-1.85188 -0.34319,-4.85071 -0.21352,-6.59163 0.46241,-6.20867 1.88553,-12.31028 3.42122,-18.32319 0.78656,-2.67418 1.51673,-5.36559 2.35966,-8.02253 4.34478,-13.69506 9.95601,-26.97431 16.5249,-39.746245 0.91448,-1.674288 1.79647,-3.366754 2.74346,-5.022871 0.64424,-1.126614 1.03646,-2.486686 2.02888,-3.322986 2.5726,-2.167912 5.48148,-3.937778 8.45489,-5.511607 0.27742,-0.146831 0.60365,0.394221 0.62125,0.707599 0.0498,0.886113 -1.77449,5.051486 -1.77679,5.057177 -5.95151,12.725823 -12.969,24.950913 -20.85199,36.579673 -1.5284,2.13313 -3.00017,4.30802 -4.58523,6.3994 -6.44512,8.50382 -13.73228,16.51746 -22.38584,22.81574 -3.49899,2.04303 -6.93346,4.20075 -10.49692,6.12908 -2.09556,1.13398 -5.65881,2.62906 -7.98658,1.06217 -1.4841,-0.999 -1.37555,-2.11511 -1.714,-3.69404 0.0663,-0.90792 0.0572,-1.82449 0.19875,-2.72376 0.88207,-5.60426 3.85443,-10.69385 6.8579,-15.39594 0.1457,-0.19595 2.23171,-3.12929 2.77616,-3.46085 2.63838,-1.60666 5.33276,-3.15811 8.18185,-4.3519 0.5833,-0.2444 0.82058,1.14088 0.70286,1.76224 -0.11239,0.5932 -0.37962,1.14629 -0.56943,1.71943 -2.86692,6.57272 -6.87377,12.58628 -11.74301,17.85449 -5.46192,5.40049 -7.11252,6.22581 -15.00502,10.62478 -1.2695,0.70757 -3.39717,1.4957 -4.9168,1.51642 -0.68461,0.009 -1.34626,-0.25035 -2.01938,-0.37553 -0.52999,-0.37728 -1.15097,-0.65175 -1.58999,-1.13186 -3.15034,-3.44526 -1.79734,-10.57135 -1.23198,-14.6432 0.87334,-4.45275 0.7012,-3.81777 1.759,-8.23737 0.98883,-4.13153 2.24304,-8.23437 2.65576,-12.47844 0.47638,-3.15758 -0.0551,-0.7732 6.64038,-4.6246 0.42727,-0.24577 -0.84087,0.53221 -1.18338,0.88668 -2.29155,2.37179 -3.83315,5.42701 -5.74984,8.07192 -4.38759,7.10586 -8.70305,14.26302 -13.29709,21.23697 -0.90376,1.26344 -1.89336,2.63414 -2.78445,3.92136 -0.27024,0.39036 -0.38991,0.93732 -0.79816,1.17966 -2.53778,1.50642 -5.18443,2.84349 -7.90522,3.98665 -0.18881,0.0793 -0.26422,-0.34607 -0.27247,-0.55072 -0.0135,-0.33324 0.14054,-0.65205 0.21082,-0.97807 1.31876,-3.93757 3.32909,-7.58363 5.21914,-11.26938 0,0 7.46969,-3.37954 7.46969,-3.37954 z"
       inkscape:connector-curvature="0" />
  </g>
</svg>
